ply
format ascii 1.0
comment VCGLIB generated
element vertex 462
property float x
property float y
property float z
property float nx
property float ny
property float nz
property float texture_u
property float texture_v
element face 812
property list uchar int vertex_indices
end_header
0.736492 0.162254 0.023772 2.80096 -7.41266 0.630194 0.035714 0.052475
0.700238 0.149338 0.015497 0.771039 -2.88035 0.175988 0.035714 0.034983
0.693078 0.147562 0 0.964649 -3.86652 0.0714484 0.017857 0.026237
0.736973 0.16181 0 0.642899 -1.89385 -0.00198158 0 0.052475
0.687063 0.147562 0.026353 0.899911 -3.86659 0.354117 0.053571 0.026237
0.726611 0.16181 0.045398 1.33778 -3.70629 0.594245 0.071429 0.052475
0.632341 0.137667 0 0.161134 -0.986247 0.0367785 0.035714 0
0.816946 0.220907 0.042135 5.26601 -5.82399 1.2333 0.035714 0.10495
0.777357 0.186791 0.033099 2.04153 -3.33966 0.461419 0.035714 0.078712
0.781134 0.186791 0 1.92636 -3.42086 0.144551 0 0.078712
0.821755 0.220907 -0 1.28388 -1.52649 0.146521 0 0.10495
0.766399 0.186791 0.064559 3.95624 -6.67914 1.48224 0.071429 0.078712
0.802997 0.220907 0.082183 2.5686 -2.91199 0.897575 0.071429 0.10495
0.873539 0.310017 0.055052 7.01725 -3.32403 1.61845 0.035714 0.157424
0.849373 0.262559 0.049536 3.10181 -2.3062 0.723505 0.035714 0.131187
0.855026 0.262559 -0 3.04817 -2.44711 0.34787 0 0.131187
0.879822 0.310017 -0 1.76443 -0.919908 0.201365 0 0.157424
0.832973 0.262559 0.096619 6.0506 -4.61221 2.11421 0.071429 0.131187
0.855314 0.310017 0.107378 3.4198 -1.66198 1.19621 0.071429 0.157424
0.895945 0.439484 0.060166 7.72243 -0.631149 1.76471 0.035714 0.209899
0.888348 0.361554 0.058432 3.71703 -0.938577 0.856511 0.035714 0.183662
0.895016 0.361554 -0 3.74213 -1.11656 0.427053 0 0.183662
0.902811 0.439484 -0 1.97754 -0.195998 0.22567 0 0.209899
0.869003 0.361554 0.11397 7.24481 -1.87687 2.53596 0.071429 0.183662
0.876026 0.439484 0.117352 3.76006 -0.315383 1.32063 0.071429 0.209899
0.898477 0.717119 0.060744 7.75095 0 1.77119 0.035714 0.35495
0.898477 0.566124 0.060744 3.87086 -0.118081 0.884012 0.035714 0.282424
0.905409 0.566124 -0 3.9647 -0.195402 0.45244 0 0.282424
0.905409 0.717119 -0 1.9871 0 0.226763 0 0.35495
0.878367 0.566124 0.11848 7.53768 -0.236281 2.65011 0.071429 0.282424
0.878367 0.717119 0.11848 3.772 0 1.33111 0.071429 0.35495
0.898477 1.01911 0.060744 7.75095 0 1.77119 0.035714 0.5
0.898477 0.868113 0.060744 3.87581 0 0.88462 0.035714 0.427475
0.905409 0.868113 -0 3.97421 0 0.453527 0 0.427475
0.905409 1.01911 -0 1.9871 0 0.226763 0 0.5
0.878367 0.868114 0.11848 7.54535 0 2.65837 0.071429 0.427475
0.878367 1.01911 0.11848 3.772 0 1.33111 0.071429 0.5
0.898477 1.3211 0.060744 7.75094 2.18167e-006 1.77119 0.035714 0.64505
0.898477 1.1701 0.060744 3.87581 0 0.88462 0.035714 0.572525
0.905409 1.1701 -0 3.97421 0 0.453527 0 0.572525
0.905409 1.3211 -0 1.9871 0 0.226763 0 0.64505
0.878367 1.1701 0.11848 7.54535 3.22586e-008 2.65837 0.071429 0.572525
0.878367 1.3211 0.11848 3.772 1.15506e-006 1.33112 0.071429 0.64505
0.58599 0.162254 -0.09625 -1.25383 -7.41259 -2.58293 0.678571 0.052475
0.602124 0.149338 -0.062746 -0.343146 -2.88035 -0.712547 0.678571 0.034983
0.594473 0.147562 -0.047486 -0.545599 -3.86652 -0.798734 0.660714 0.026237
0.567104 0.16181 -0.081804 -0.803575 -3.78753 -1.00443 0.642857 0.052475
0.618826 0.147562 -0.059214 -0.284226 -3.86659 -0.924369 0.696429 0.026237
0.609058 0.16181 -0.102008 -0.369503 -3.7063 -1.41642 0.714286 0.052475
0.898477 1.47209 0.060744 1.93791 1.09083e-006 0.442312 0.035714 0.717576
0.878367 1.47209 0.118479 3.772 2.24561e-006 1.33106 0.071429 0.717576
0.905409 1.47209 -0 1.9871 0 0.226763 0 0.717576
0.632341 0.137667 0 -0.0717129 -0.986247 -0.148911 0.678571 0
0.550184 0.220907 -0.170601 -2.31959 -5.82373 -4.88612 0.678571 0.10495
0.567803 0.186791 -0.134015 -0.912124 -3.33967 -1.88381 0.678571 0.078712
0.53957 0.186791 -0.116331 -2.40585 -6.84158 -3.01038 0.642857 0.078712
0.514244 0.220907 -0.14809 -1.48774 -3.05244 -2.09886 0.642857 0.10495
0.599232 0.186791 -0.145063 -1.30783 -6.67915 -4.01726 0.714286 0.078712
0.590193 0.220907 -0.184665 -0.899741 -2.912 -2.56783 0.714286 0.10495
0.524998 0.310017 -0.222901 -3.1105 -3.32354 -6.49527 0.678571 0.157424
0.535753 0.262559 -0.200568 -1.36829 -2.30619 -2.87619 0.678571 0.131187
0.493499 0.262559 -0.174102 -3.57434 -4.89332 -4.94915 0.642857 0.131187
0.478039 0.310017 -0.193488 -2.04464 -1.83887 -2.88394 0.642857 0.157424
0.582789 0.262559 -0.217102 -2.11951 -4.61219 -6.04876 0.714286 0.131187
0.577272 0.310017 -0.241276 -1.19695 -1.66196 -3.41956 0.714286 0.157424
0.515027 0.439484 -0.243606 -3.43662 -0.630564 -7.13706 0.678571 0.209899
0.518408 0.361554 -0.236586 -1.64788 -0.938568 -3.44012 0.678571 0.183662
0.468566 0.361554 -0.205367 -4.35487 -2.23129 -6.10183 0.642857 0.183662
0.463706 0.439484 -0.211462 -2.2939 -0.390889 -3.23028 0.642857 0.209899
0.573891 0.361554 -0.256089 -2.53437 -1.87683 -7.24538 0.714286 0.183662
0.572156 0.439484 -0.263688 -1.31186 -0.315364 -3.76314 0.714286 0.209899
0.5139 0.717119 -0.245946 -3.44961 -6.36372e-006 -7.16317 0.678571 0.35495
0.5139 0.566124 -0.245946 -1.72229 -0.118082 -3.57754 0.678571 0.282424
0.462086 0.566124 -0.213493 -4.5984 -0.38796 -6.47655 0.642857 0.282424
0.462086 0.717119 -0.213493 -2.30578 0 -3.24528 0.642857 0.35495
0.571578 0.566124 -0.266221 -2.62776 -0.236279 -7.5455 0.714286 0.282424
0.571578 0.717119 -0.266222 -1.31113 -9.45312e-006 -3.77899 0.714286 0.35495
0.715864 0.162254 0.066607 2.25014 -7.41266 1.78307 0.107143 0.052475
0.68679 0.149338 0.043422 0.618324 -2.88035 0.4931 0.107143 0.034983
0.687063 0.147562 0.026353 0.838122 -3.86652 0.482909 0.089286 0.026237
0.67021 0.147562 0.047486 0.657143 -3.86659 0.709511 0.125 0.026237
0.697578 0.16181 0.081804 0.947462 -3.70629 1.11585 0.142857 0.052475
0.632341 0.137667 0 0.12922 -0.986247 0.103049 0.107143 0
0.780383 0.220907 0.118059 4.46195 -5.82423 2.8721 0.107143 0.10495
0.748635 0.186791 0.092741 1.70244 -3.3397 1.17014 0.107143 0.078712
0.725112 0.186791 0.116331 2.92133 -6.67915 3.05198 0.142857 0.078712
0.750439 0.220907 0.14809 1.92479 -2.912 1.92313 0.142857 0.10495
0.825767 0.310017 0.154252 5.96681 -3.32439 3.78447 0.107143 0.157424
0.806387 0.262559 0.138797 2.63069 -2.30633 1.68666 0.107143 0.131187
0.771183 0.262559 0.174102 4.5341 -4.6122 4.53008 0.142857 0.131187
0.786643 0.310017 0.193488 2.56212 -1.66196 2.56156 0.142857 0.157424
0.843735 0.439484 0.168581 6.57806 -0.631339 4.14319 0.107143 0.209899
0.837642 0.361554 0.163722 3.16105 -0.938717 2.00394 0.107143 0.183662
0.796116 0.361554 0.205367 5.42706 -1.87688 5.42822 0.142857 0.183662
0.800976 0.439484 0.211462 2.81471 -0.315402 2.82126 0.142857 0.209899
0.845765 0.717119 0.1702 6.59964 0 4.16654 0.107143 0.35495
0.845765 0.566124 0.1702 3.2971 -0.118136 2.07738 0.107143 0.282424
0.802596 0.566124 0.213493 5.6414 -0.236288 5.65813 0.142857 0.282424
0.802596 0.717119 0.213493 2.82091 0 2.83589 0.142857 0.35495
0.845765 1.01911 0.1702 6.59964 0 4.16654 0.107143 0.5
0.845765 0.868114 0.1702 3.30088 0 2.08159 0.107143 0.427475
0.802596 0.868114 0.213493 5.64472 0 5.6689 0.142857 0.427475
0.802596 1.01911 0.213493 2.82091 0 2.83589 0.142857 0.5
0.845765 1.3211 0.1702 6.59964 9.61999e-008 4.16654 0.107143 0.64505
0.845765 1.1701 0.1702 3.30088 0 2.08159 0.107143 0.572525
0.802596 1.1701 0.213493 5.64472 0 5.6689 0.142857 0.572525
0.802596 1.3211 0.213493 2.82091 0 2.83589 0.142857 0.64505
0.845765 1.47209 0.1702 1.64977 3.19706e-008 1.04269 0.107143 0.717576
0.802596 1.47209 0.213493 2.82094 0 2.83584 0.142857 0.717576
0.5139 1.01911 -0.245946 -3.44962 0 -7.16316 0.678571 0.5
0.5139 0.868113 -0.245946 -1.72491 0 -3.58179 0.678571 0.427475
0.462086 0.868113 -0.213493 -4.60981 0 -6.49165 0.642857 0.427475
0.462086 1.01911 -0.213493 -2.30578 0 -3.24528 0.642857 0.5
0.571578 0.868113 -0.266222 -2.62614 -6.2268e-006 -7.55663 0.714286 0.427475
0.571578 1.01911 -0.266222 -1.31115 0 -3.77898 0.714286 0.5
0.5139 1.3211 -0.245946 -3.44961 -6.33978e-006 -7.16317 0.678571 0.64505
0.5139 1.1701 -0.245946 -1.72491 0 -3.58179 0.678571 0.572525
0.462086 1.1701 -0.213493 -4.60981 0 -6.49165 0.642857 0.572525
0.462086 1.3211 -0.213493 -2.30578 -1.01065e-007 -3.24528 0.642857 0.64505
0.571578 1.1701 -0.266222 -2.62615 0 -7.55663 0.714286 0.572525
0.571578 1.3211 -0.266222 -1.31114 -3.1189e-006 -3.77899 0.714286 0.64505
0.5139 1.47209 -0.245947 -0.862449 -3.17012e-006 -1.7909 0.678571 0.717576
0.571578 1.47209 -0.266222 -1.31118 -6.2378e-006 -3.77896 0.714286 0.717576
0.462086 1.47209 -0.213493 -2.13195 -2.02587e-007 -3.38449 0.642857 0.717576
0.632341 0.162254 -0.10683 -0.00889961 -7.41266 -2.87095 0.75 0.052475
0.632341 0.149338 -0.069643 2.01166e-007 -2.88035 -0.790864 0.75 0.034983
0.618826 0.147562 -0.059214 -0.145019 -3.86652 -0.956358 0.732143 0.026237
0.645856 0.147562 -0.059214 0.145004 -3.86659 -0.956142 0.767857 0.026237
0.655624 0.16181 -0.102008 0.281669 -3.70629 -1.43647 0.785714 0.052475
0.632341 0.137667 0 0 -0.986247 -0.165279 0.75 0
0.632341 0.220907 -0.189353 -0.536472 -5.82423 -5.27922 0.75 0.10495
0.632341 0.186791 -0.148745 -0.146615 -3.3397 -2.06059 0.75 0.078712
0.665451 0.186791 -0.145063 0.564703 -6.67916 -4.18687 0.785714 0.078712
0.67449 0.220907 -0.184665 0.303482 -2.912 -2.70392 0.785714 0.10495
0.678693 0.162254 0.09625 1.25367 -7.41266 2.58278 0.178571 0.052475
0.662558 0.149338 0.062746 0.343142 -2.88035 0.712548 0.178571 0.034983
0.67021 0.147562 0.047486 0.545595 -3.86652 0.798737 0.160714 0.026237
0.645856 0.147562 0.059214 0.284218 -3.86659 0.924371 0.196429 0.026237
0.655624 0.16181 0.102008 0.369502 -3.7063 1.41642 0.214286 0.052475
0.632341 0.137667 0 0.0717105 -0.986247 0.148912 0.178571 0
0.714498 0.220907 0.170601 2.77391 -5.82424 4.52362 0.178571 0.10495
0.696879 0.186791 0.134015 1.02615 -3.3397 1.79291 0.178571 0.078712
0.665451 0.186791 0.145063 1.30785 -6.67915 4.01725 0.214286 0.078712
0.67449 0.220907 0.184665 0.899759 -2.91199 2.56783 0.214286 0.10495
0.739684 0.310017 0.222901 3.73388 -3.32439 5.9986 0.178571 0.157424
0.728929 0.262559 0.200568 1.63835 -2.30633 2.66104 0.178571 0.131187
0.681893 0.262559 0.217102 2.11954 -4.6122 6.04874 0.214286 0.131187
0.687411 0.310017 0.241276 1.19696 -1.66197 3.41955 0.214286 0.157424
0.749656 0.439484 0.243606 4.12897 -0.631346 6.58698 0.178571 0.209899
0.746275 0.361554 0.236586 1.97852 -0.938713 3.17701 0.178571 0.183662
0.690792 0.361554 0.256089 2.53436 -1.87683 7.24538 0.214286 0.183662
0.692526 0.439484 0.263688 1.31185 -0.315359 3.76314 0.214286 0.209899
0.750783 0.717119 0.245946 4.13826 0 6.6174 0.178571 0.35495
0.750783 0.566124 0.245946 2.06924 -0.118148 3.30221 0.178571 0.282424
0.693105 0.566124 0.266221 2.62772 -0.236265 7.54552 0.214286 0.282424
0.693105 0.717119 0.266221 1.31109 0 3.779 0.214286 0.35495
0.750783 1.01911 0.245946 4.13826 0 6.61739 0.178571 0.5
0.750783 0.868114 0.245946 2.07082 0 3.30764 0.178571 0.427475
0.693105 0.868114 0.266221 2.62604 0 7.55667 0.214286 0.427475
0.693105 1.01911 0.266221 1.31109 0 3.779 0.214286 0.5
0.750783 1.3211 0.245946 4.13826 0 6.6174 0.178571 0.64505
0.750783 1.1701 0.245946 2.07082 0 3.30764 0.178571 0.572525
0.693105 1.1701 0.266221 2.62604 0 7.55667 0.214286 0.572525
0.693105 1.3211 0.266221 1.31109 0 3.779 0.214286 0.64505
0.750783 1.47209 0.245946 1.03398 0 1.65524 0.178571 0.717576
0.693105 1.47209 0.266221 1.31114 0 3.77898 0.214286 0.717576
0.632341 0.310017 -0.247401 -0.761425 -3.32437 -7.02464 0.75 0.157424
0.632341 0.262559 -0.222613 -0.321515 -2.30632 -3.10838 0.75 0.131187
0.681893 0.262559 -0.217102 0.714786 -4.6122 -6.36937 0.785714 0.131187
0.687411 0.310017 -0.241276 0.405235 -1.66197 -3.60025 0.785714 0.157424
0.632341 0.439484 -0.270382 -0.862099 -0.6313 -7.72616 0.75 0.209899
0.632341 0.361554 -0.26259 -0.404144 -0.938695 -3.72085 0.75 0.183662
0.690792 0.361554 -0.256089 0.860205 -1.87683 -7.62749 0.785714 0.183662
0.692526 0.439484 -0.263688 0.450798 -0.315368 -3.95967 0.785714 0.209899
0.632341 0.717119 -0.27298 -0.857295 -1.92357e-005 -7.75759 0.75 0.35495
0.632341 0.566124 -0.27298 -0.431549 -0.118143 -3.87299 0.75 0.282424
0.693105 0.566124 -0.266221 0.906362 -0.236287 -7.93841 0.785714 0.282424
0.693105 0.717119 -0.266222 0.458389 -9.93991e-006 -3.97363 0.785714 0.35495
0.632341 1.01911 -0.27298 -0.857339 0 -7.75758 0.75 0.5
0.632341 0.868113 -0.27298 -0.430644 -3.1134e-006 -3.87858 0.75 0.427475
0.693105 0.868113 -0.266222 0.912686 -6.54746e-006 -7.94772 0.785714 0.427475
0.693105 1.01911 -0.266222 0.458365 0 -3.97363 0.785714 0.5
0.632341 0.162254 0.10683 0.00889865 -7.41266 2.87095 0.25 0.052475
0.632341 0.149338 0.069643 2.38419e-007 -2.88035 0.790864 0.25 0.034983
0.645856 0.147562 0.059214 0.14502 -3.86652 0.956358 0.232143 0.026237
0.618826 0.147562 0.059214 -0.145004 -3.86659 0.956143 0.267857 0.026237
0.609058 0.16181 0.102008 -0.281673 -3.70629 1.43647 0.285714 0.052475
0.632341 0.137667 0 0 -0.986247 0.165279 0.25 0
0.632341 0.220907 0.189353 0.536487 -5.82423 5.27921 0.25 0.10495
0.632341 0.186791 0.148745 0.146617 -3.3397 2.06059 0.25 0.078712
0.599232 0.186791 0.145063 -0.564716 -6.67915 4.18687 0.285714 0.078712
0.590193 0.220907 0.184665 -0.303488 -2.912 2.70392 0.285714 0.10495
0.632341 0.310017 0.247401 0.761429 -3.32438 7.02463 0.25 0.157424
0.632341 0.262559 0.222613 0.321521 -2.30632 3.10837 0.25 0.131187
0.582789 0.262559 0.217102 -0.714794 -4.61219 6.36937 0.285714 0.131187
0.577272 0.310017 0.241276 -0.405239 -1.66196 3.60025 0.285714 0.157424
0.632341 0.439484 0.270382 0.862086 -0.631292 7.72617 0.25 0.209899
0.632341 0.361554 0.26259 0.404141 -0.938696 3.72085 0.25 0.183662
0.573891 0.361554 0.256089 -0.860213 -1.87683 7.62749 0.285714 0.183662
0.572156 0.439484 0.263688 -0.450801 -0.31537 3.95967 0.285714 0.209899
0.632341 0.717119 0.27298 0.857211 0 7.75759 0.25 0.35495
0.632341 0.566124 0.27298 0.431529 -0.118134 3.873 0.25 0.282424
0.571578 0.566124 0.266221 -0.906404 -0.236274 7.9384 0.285714 0.282424
0.571578 0.717119 0.266221 -0.458435 0 3.97362 0.285714 0.35495
0.632341 1.01911 0.27298 0.857211 0 7.75759 0.25 0.5
0.632341 0.868114 0.27298 0.430586 0 3.87858 0.25 0.427475
0.571578 0.868114 0.266221 -0.91281 0 7.94771 0.285714 0.427475
0.571578 1.01911 0.266221 -0.458435 0 3.97362 0.285714 0.5
0.632341 1.3211 0.27298 0.857211 0 7.75759 0.25 0.64505
0.632341 1.1701 0.27298 0.430586 0 3.87858 0.25 0.572525
0.571578 1.1701 0.266221 -0.91281 0 7.94771 0.285714 0.572525
0.571578 1.3211 0.266221 -0.458435 0 3.97362 0.285714 0.64505
0.632341 1.3211 -0.27298 -0.857339 0 -7.75758 0.75 0.64505
0.632341 1.1701 -0.27298 -0.430651 0 -3.87858 0.75 0.572525
0.632341 1.47209 0.27298 0.213388 0 1.93995 0.25 0.717576
0.571578 1.47209 0.266221 -0.458379 0 3.97362 0.285714 0.717576
0.693105 1.1701 -0.266222 0.91267 0 -7.94772 0.785714 0.572525
0.693105 1.3211 -0.266222 0.458365 -5.69957e-008 -3.97363 0.785714 0.64505
0.632341 1.47209 -0.27298 -0.21342 0 -1.93994 0.75 0.717576
0.693105 1.47209 -0.266222 0.458309 -1.13991e-007 -3.97362 0.785714 0.717576
0.678693 0.162254 -0.09625 1.23766 -7.41266 -2.5905 0.821429 0.052475
0.662558 0.149338 -0.062746 0.343142 -2.88035 -0.712548 0.821429 0.034983
0.645856 0.147562 -0.059214 0.284297 -3.86652 -0.924571 0.803571 0.026237
0.67021 0.147562 -0.047486 0.545487 -3.86659 -0.79855 0.839286 0.026237
0.697578 0.16181 -0.081804 0.877036 -3.70629 -1.17201 0.857143 0.052475
0.632341 0.137667 0 0.0717105 -0.986247 -0.148912 0.821429 0
0.714498 0.220907 -0.170601 1.80721 -5.82425 -4.98916 0.821429 0.10495
0.696879 0.186791 -0.134015 0.761966 -3.3397 -1.92013 0.821429 0.078712
0.725112 0.186791 -0.116331 2.32541 -6.67916 -3.52721 0.857143 0.078712
0.750439 0.220907 -0.14809 1.44662 -2.912 -2.30446 0.857143 0.10495
0.739684 0.310017 -0.222901 2.36186 -3.32439 -6.65932 0.821429 0.157424
0.728929 0.262559 -0.200568 1.05899 -2.30632 -2.94004 0.821429 0.131187
0.771183 0.262559 -0.174102 3.4076 -4.61219 -5.42844 0.857143 0.131187
0.786643 0.310017 -0.193488 1.92723 -1.66196 -3.06787 0.857143 0.157424
0.58599 0.162254 0.09625 -1.23765 -7.41266 2.5905 0.321429 0.052475
0.602124 0.149338 0.062746 -0.343146 -2.88035 0.712547 0.321429 0.034983
0.618826 0.147562 0.059214 -0.284306 -3.86652 0.924569 0.303571 0.026237
0.594473 0.147562 0.047486 -0.545492 -3.86659 0.798547 0.339286 0.026237
0.567104 0.16181 0.081804 -0.877021 -3.7063 1.17201 0.357143 0.052475
0.632341 0.137667 0 -0.0717129 -0.986247 0.148911 0.321429 0
0.550184 0.220907 0.170601 -1.80723 -5.82425 4.98915 0.321429 0.10495
0.567803 0.186791 0.134015 -0.761969 -3.3397 1.92014 0.321429 0.078712
0.53957 0.186791 0.116331 -2.32541 -6.67915 3.52722 0.357143 0.078712
0.514244 0.220907 0.14809 -1.44664 -2.912 2.30446 0.357143 0.10495
0.524998 0.310017 0.222901 -2.36185 -3.32437 6.65933 0.321429 0.157424
0.535753 0.262559 0.200568 -1.059 -2.30632 2.94004 0.321429 0.131187
0.493499 0.262559 0.174102 -3.40761 -4.6122 5.42843 0.357143 0.131187
0.478039 0.310017 0.193488 -1.92722 -1.66196 3.06787 0.357143 0.157424
0.515027 0.439484 0.243606 -2.57549 -0.631307 7.3351 0.321429 0.209899
0.518408 0.361554 0.236586 -1.25029 -0.938702 3.52771 0.321429 0.183662
0.468566 0.361554 0.205367 -4.08449 -1.87685 6.49888 0.357143 0.183662
0.463706 0.439484 0.211462 -2.12418 -0.315381 3.37195 0.357143 0.209899
0.5139 0.717119 0.245946 -2.59355 0 7.36132 0.321429 0.35495
0.5139 0.566124 0.245946 -1.29161 -0.118134 3.6767 0.321429 0.282424
0.462086 0.566124 0.213493 -4.26089 -0.236277 6.75903 0.357143 0.282424
0.462086 0.717119 0.213493 -2.13706 0 3.38124 0.357143 0.35495
0.5139 1.01911 0.245946 -2.59355 0 7.36132 0.321429 0.5
0.5139 0.868114 0.245946 -1.29489 0 3.68132 0.321429 0.427475
0.462086 0.868114 0.213493 -4.27067 0 6.76467 0.357143 0.427475
0.462086 1.01911 0.213493 -2.13706 0 3.38124 0.357143 0.5
0.5139 1.3211 0.245946 -2.59355 0 7.36132 0.321429 0.64505
0.5139 1.1701 0.245946 -1.29489 0 3.68132 0.321429 0.572525
0.462086 1.1701 0.213493 -4.27067 0 6.76467 0.357143 0.572525
0.462086 1.3211 0.213493 -2.13706 0 3.38124 0.357143 0.64505
0.749656 0.439484 -0.243606 2.57551 -0.631304 -7.33508 0.821429 0.209899
0.746275 0.361554 -0.236586 1.2503 -0.938707 -3.52771 0.821429 0.183662
0.5139 1.47209 0.245946 -0.649449 0 1.84043 0.321429 0.717576
0.462086 1.47209 0.213493 -2.13701 0 3.38126 0.357143 0.717576
0.796116 0.361554 -0.205367 4.08453 -1.87686 -6.49886 0.857143 0.183662
0.800976 0.439484 -0.211462 2.12421 -0.315381 -3.37193 0.857143 0.209899
0.750783 0.717119 -0.245946 2.59354 -1.31836e-005 -7.3613 0.821429 0.35495
0.750783 0.566124 -0.245946 1.29161 -0.118136 -3.67669 0.821429 0.282424
0.802596 0.566124 -0.213493 4.26095 -0.236277 -6.759 0.857143 0.282424
0.802596 0.717119 -0.213493 2.13709 0 -3.38122 0.857143 0.35495
0.750783 1.01911 -0.245946 2.59351 0 -7.36131 0.821429 0.5
0.750783 0.868113 -0.245946 1.29488 -3.27373e-006 -3.68132 0.821429 0.427475
0.802596 0.868113 -0.213493 4.27073 0 -6.76463 0.857143 0.427475
0.802596 1.01911 -0.213493 2.13709 0 -3.38122 0.857143 0.5
0.750783 1.3211 -0.245946 2.59352 -5.71754e-006 -7.3613 0.821429 0.64505
0.750783 1.1701 -0.245946 1.29488 0 -3.68132 0.821429 0.572525
0.802596 1.1701 -0.213493 4.27073 0 -6.76463 0.857143 0.572525
0.802596 1.3211 -0.213493 2.1371 -2.80178e-006 -3.38122 0.857143 0.64505
0.548818 0.162254 0.066607 -2.23904 -7.41266 1.79696 0.392857 0.052475
0.577892 0.149338 0.043422 -0.618319 -2.88035 0.493094 0.392857 0.034983
0.594473 0.147562 0.047486 -0.657291 -3.86652 0.70966 0.375 0.026237
0.57762 0.147562 0.026353 -0.837945 -3.8666 0.482772 0.410714 0.026237
0.538071 0.16181 0.045398 -1.29869 -3.7063 0.67541 0.428571 0.052475
0.632341 0.137667 0 -0.12922 -0.986247 0.103049 0.392857 0
0.484299 0.220907 0.118059 -3.793 -5.82424 3.71094 0.392857 0.10495
0.516047 0.186791 0.092741 -1.51963 -3.3397 1.39938 0.392857 0.078712
0.498283 0.186791 0.064559 -3.62554 -6.67914 2.16896 0.428571 0.078712
0.461685 0.220907 0.082183 -2.30325 -2.91199 1.44858 0.428571 0.10495
0.438915 0.310017 0.154252 -5.01735 -3.32438 4.97507 0.392857 0.157424
0.458295 0.262559 0.138797 -2.22977 -2.30632 2.18939 0.392857 0.131187
0.431709 0.262559 0.096619 -5.42547 -4.6122 3.41233 0.428571 0.131187
0.409369 0.310017 0.107378 -3.06747 -1.66197 1.92786 0.428571 0.157424
0.420948 0.439484 0.168581 -5.50303 -0.631323 5.4912 0.392857 0.209899
0.42704 0.361554 0.163722 -2.65709 -0.938704 2.63588 0.392857 0.183662
0.395679 0.361554 0.11397 -6.49976 -1.87684 4.08309 0.428571 0.183662
0.388657 0.439484 0.117352 -3.37687 -0.315368 2.11635 0.428571 0.209899
0.418917 0.717119 0.1702 -5.53062 0 5.50703 0.392857 0.35495
0.418917 0.566124 0.1702 -2.75896 -0.118142 2.75217 0.392857 0.282424
0.386316 0.566124 0.11848 -6.77161 -0.236273 4.24088 0.428571 0.282424
0.386316 0.717119 0.11848 -3.39251 0 2.11912 0.428571 0.35495
0.418917 1.01911 0.1702 -5.53062 0 5.50703 0.392857 0.5
0.418917 0.868114 0.1702 -2.76391 0 2.75493 0.392857 0.427475
0.386316 0.868114 0.11848 -6.78286 0 4.24171 0.428571 0.427475
0.386316 1.01911 0.11848 -3.39251 0 2.11912 0.428571 0.5
0.418917 1.3211 0.1702 -5.53063 3.53001e-006 5.507 0.392857 0.64505
0.418917 1.1701 0.1702 -2.76391 1.76288e-006 2.75492 0.392857 0.572525
0.386316 1.1701 0.11848 -6.78287 7.0171e-006 4.2417 0.428571 0.572525
0.386316 1.3211 0.118479 -3.39252 5.22309e-006 2.11911 0.428571 0.64505
0.750783 1.47209 -0.245947 0.649445 -2.85877e-006 -1.84042 0.821429 0.717576
0.802596 1.47209 -0.213493 2.13705 -5.60355e-006 -3.38124 0.857143 0.717576
0.418917 1.47209 0.1702 -1.38366 0 1.37638 0.392857 0.717576
0.386316 1.47209 0.118479 -3.39249 3.44047e-006 2.11914 0.428571 0.717576
0.715864 0.162254 -0.066607 2.23906 -7.41266 -1.79697 0.892857 0.052475
0.68679 0.149338 -0.043422 0.618324 -2.88035 -0.4931 0.892857 0.034983
0.67021 0.147562 -0.047486 0.657301 -3.86652 -0.709657 0.875 0.026237
0.687063 0.147562 -0.026353 0.837944 -3.86659 -0.482787 0.910714 0.026237
0.726611 0.16181 -0.045398 1.2987 -3.70629 -0.675407 0.928571 0.052475
0.632341 0.137667 0 0.12922 -0.986247 -0.103049 0.892857 0
0.780383 0.220907 -0.118059 3.79298 -5.82424 -3.71094 0.892857 0.10495
0.748635 0.186791 -0.092741 1.51963 -3.3397 -1.39938 0.892857 0.078712
0.766399 0.186791 -0.064559 3.62555 -6.67914 -2.16895 0.928571 0.078712
0.802997 0.220907 -0.082183 2.30325 -2.91199 -1.44858 0.928571 0.10495
0.825767 0.310017 -0.154252 5.01734 -3.32438 -4.97509 0.892857 0.157424
0.806387 0.262559 -0.138797 2.22976 -2.30633 -2.1894 0.892857 0.131187
0.832973 0.262559 -0.096619 5.42545 -4.61222 -3.41235 0.928571 0.131187
0.855314 0.310017 -0.107378 3.06745 -1.66198 -1.92788 0.928571 0.157424
0.843735 0.439484 -0.168581 5.50305 -0.631337 -5.4912 0.892857 0.209899
0.837642 0.361554 -0.163722 2.6571 -0.938707 -2.63588 0.892857 0.183662
0.869003 0.361554 -0.11397 6.49974 -1.87688 -4.08311 0.928571 0.183662
0.876026 0.439484 -0.117352 3.37686 -0.315396 -2.11636 0.928571 0.209899
0.52819 0.162254 0.023772 -2.79698 -7.41266 0.647525 0.464286 0.052475
0.564444 0.149338 0.015497 -0.771031 -2.88035 0.175985 0.464286 0.034983
0.57762 0.147562 0.026353 -0.900106 -3.86652 0.35419 0.446429 0.026237
0.571605 0.147562 0 -0.96443 -3.8666 0.0714 0.482143 0.026237
0.527709 0.16181 0 -1.46312 -3.7063 0.0450473 0.5 0.052475
0.632341 0.137667 0 -0.161134 -0.986247 0.0367785 0.464286 0
0.447736 0.220907 0.042135 -5.02749 -5.82424 1.69771 0.464286 0.10495
0.487325 0.186791 0.033099 -1.97631 -3.33969 0.601452 0.464286 0.078712
0.483548 0.186791 0 -4.20758 -6.67914 0.381085 0.5 0.078712
0.442928 0.220907 -0 -2.70367 -2.91199 0.305763 0.5 0.10495
0.391143 0.310017 0.055052 -6.67908 -3.32438 2.30546 0.464286 0.157424
0.415309 0.262559 0.049536 -2.9589 -2.30633 1.00512 0.464286 0.131187
0.409656 0.262559 -0 -6.36873 -4.6122 0.720402 0.5 0.131187
0.38486 0.310017 -0 -3.60016 -1.66196 0.406055 0.5 0.157424
0.368738 0.439484 0.060166 -7.34061 -0.631302 2.55975 0.464286 0.209899
0.376335 0.361554 0.058432 -3.53762 -0.938698 1.22198 0.464286 0.183662
0.369666 0.361554 -0 -7.62766 -1.87683 0.858648 0.5 0.183662
0.361872 0.439484 -0 -3.9607 -0.315368 0.441625 0.5 0.209899
0.366206 0.717119 0.060744 -7.37234 0 2.56204 0.464286 0.35495
0.366206 0.566124 0.060744 -3.67986 -0.118137 1.28257 0.464286 0.282424
0.359273 0.566124 -0 -7.94105 -0.236273 0.882897 0.5 0.282424
0.359273 0.717119 -0 -3.976 0 0.437365 0.5 0.35495
0.366206 1.01911 0.060744 -7.37234 0 2.56204 0.464286 0.5
0.366206 0.868113 0.060744 -3.68552 0 1.2829 0.464286 0.427475
0.359273 0.868113 -0 -7.95154 0 0.878792 0.5 0.427475
0.359273 1.01911 -0 -3.976 0 0.437365 0.5 0.5
0.366206 1.3211 0.060744 -7.37235 6.92756e-006 2.56203 0.464286 0.64505
0.366206 1.1701 0.060744 -3.68552 1.75136e-006 1.2829 0.464286 0.572525
0.359273 1.1701 -0 -7.95154 0 0.878792 0.5 0.572525
0.359273 1.3211 -0 -3.976 0 0.437365 0.5 0.64505
0.845765 0.717119 -0.1702 5.53062 0 -5.50705 0.892857 0.35495
0.845765 0.566124 -0.1702 2.75896 -0.118139 -2.75218 0.892857 0.282424
0.878367 0.566124 -0.11848 6.77157 -0.236287 -4.24094 0.928571 0.282424
0.878367 0.717119 -0.11848 3.39248 0 -2.11917 0.928571 0.35495
0.366206 1.47209 0.060744 -1.84383 1.72023e-006 0.639736 0.464286 0.717576
0.359273 1.47209 -0 -3.97598 0 0.437418 0.5 0.717576
0.845765 1.01911 -0.1702 5.53062 0 -5.50705 0.892857 0.5
0.845765 0.868113 -0.1702 2.7639 0 -2.75494 0.892857 0.427475
0.878367 0.868113 -0.11848 6.7828 0 -4.24181 0.928571 0.427475
0.878367 1.01911 -0.11848 3.39248 0 -2.11917 0.928571 0.5
0.845765 1.3211 -0.1702 5.53062 0 -5.50705 0.892857 0.64505
0.845765 1.1701 -0.1702 2.7639 0 -2.75494 0.892857 0.572525
0.878367 1.1701 -0.11848 6.7828 0 -4.24181 0.928571 0.572525
0.878367 1.3211 -0.11848 3.39248 0 -2.11917 0.928571 0.64505
0.845765 1.47209 -0.1702 1.38365 0 -1.37639 0.892857 0.717576
0.878367 1.47209 -0.11848 3.39244 0 -2.11921 0.928571 0.717576
0.736492 0.162254 -0.023772 2.797 -7.41266 -0.64752 0.964286 0.052475
0.700238 0.149338 -0.015497 0.771039 -2.88035 -0.175988 0.964286 0.034983
0.687063 0.147562 -0.026353 0.900117 -3.86652 -0.35418 0.946429 0.026237
0.693078 0.147562 0 0.964436 -3.86659 -0.0714155 0.982143 0.026237
0.736973 0.16181 0 0.820235 -1.81244 -0.043058 1 0.052475
0.632341 0.137667 0 0.161134 -0.986247 -0.0367785 0.964286 0
0.52819 0.162254 -0.023772 -2.80093 -7.41267 -0.630174 0.535714 0.052475
0.564444 0.149338 -0.015497 -0.771031 -2.88035 -0.175985 0.535714 0.034983
0.571605 0.147562 0 -0.964643 -3.86652 -0.0714329 0.517857 0.026237
0.57762 0.147562 -0.026353 -0.8999 -3.8666 -0.354127 0.553571 0.026237
0.538071 0.16181 -0.045398 -1.33778 -3.7063 -0.594236 0.571429 0.052475
0.632341 0.137667 0 -0.161134 -0.986247 -0.0367785 0.535714 0
0.447736 0.220907 -0.042135 -5.26624 -5.82422 -0.651763 0.535714 0.10495
0.487325 0.186791 -0.033099 -2.04156 -3.33969 -0.3156 0.535714 0.078712
0.498283 0.186791 -0.064559 -3.95624 -6.67914 -1.48222 0.571429 0.078712
0.461685 0.220907 -0.082183 -2.5686 -2.91199 -0.897575 0.571429 0.10495
0.391143 0.310017 -0.055052 -7.01793 -3.32438 -0.820792 0.535714 0.157424
0.415309 0.262559 -0.049536 -3.10198 -2.30632 -0.37824 0.535714 0.131187
0.431709 0.262559 -0.096619 -6.0506 -4.61219 -2.11425 0.571429 0.131187
0.409369 0.310017 -0.107378 -3.4198 -1.66196 -1.19624 0.571429 0.157424
0.368738 0.439484 -0.060166 -7.72429 -0.631297 -0.878725 0.535714 0.209899
0.376335 0.361554 -0.058432 -3.71748 -0.938701 -0.433945 0.535714 0.183662
0.395679 0.361554 -0.11397 -7.24483 -1.87683 -2.53595 0.571429 0.183662
0.388657 0.439484 -0.117352 -3.76007 -0.315365 -1.32061 0.571429 0.209899
0.366206 0.717119 -0.060744 -7.75385 0 -0.890412 0.535714 0.35495
0.366206 0.566124 -0.060744 -3.87192 -0.118135 -0.441078 0.535714 0.282424
0.386316 0.566124 -0.11848 -7.53769 -0.236269 -2.6501 0.571429 0.282424
0.386316 0.717119 -0.11848 -3.772 0 -1.33111 0.571429 0.35495
0.366206 1.01911 -0.060744 -7.75385 0 -0.890412 0.535714 0.5
0.366206 0.868113 -0.060744 -3.87716 0 -0.443226 0.535714 0.427475
0.386316 0.868113 -0.11848 -7.54535 0 -2.65837 0.571429 0.427475
0.386316 1.01911 -0.11848 -3.772 0 -1.33111 0.571429 0.5
0.366206 1.3211 -0.060744 -7.75385 0 -0.890412 0.535714 0.64505
0.366206 1.1701 -0.060744 -3.87716 0 -0.443226 0.535714 0.572525
0.386316 1.1701 -0.11848 -7.54535 0 -2.65837 0.571429 0.572525
0.386316 1.3211 -0.11848 -3.772 0 -1.33111 0.571429 0.64505
0.816946 0.220907 -0.042135 5.02747 -5.82421 -1.69807 0.964286 0.10495
0.777357 0.186791 -0.033099 1.97631 -3.33969 -0.601454 0.964286 0.078712
0.781134 0.186791 0 2.28112 -3.25818 -0.234657 1 0.078712
0.821755 0.220907 -0 1.41965 -1.38535 -0.162017 1 0.10495
0.366206 1.47209 -0.060744 -1.93879 0 -0.223618 0.535714 0.717576
0.386316 1.47209 -0.11848 -3.77201 0 -1.33106 0.571429 0.717576
0.873539 0.310017 -0.055052 6.679 -3.32439 -2.30605 0.964286 0.157424
0.849373 0.262559 -0.049536 2.95889 -2.30633 -1.00513 0.964286 0.131187
0.855026 0.262559 -0 3.32011 -2.16477 -0.378908 1 0.131187
0.879822 0.310017 -0 1.8353 -0.741841 -0.209451 1 0.157424
0.895945 0.439484 -0.060166 7.34049 -0.631335 -2.56076 0.964286 0.209899
0.888348 0.361554 -0.058432 3.53762 -0.93873 -1.22197 0.964286 0.183662
0.895016 0.361554 -0 3.88434 -0.760008 -0.443278 1 0.183662
0.902811 0.439484 -0 1.98203 -0.119271 -0.226183 1 0.209899
0.898477 0.717119 -0.060744 7.37208 0 -2.56407 0.964286 0.35495
0.898477 0.566124 -0.060744 3.67986 -0.118143 -1.28256 0.964286 0.282424
0.905409 0.566124 -0 3.97379 -0.0407563 -0.453479 1 0.282424
0.905409 0.717119 -0 1.9871 0 -0.226763 1 0.35495
0.898477 1.01911 -0.060744 7.37208 0 -2.56407 0.964286 0.5
0.898477 0.868113 -0.060744 3.68551 0 -1.28289 0.964286 0.427475
0.548818 0.162254 -0.066607 -1.96206 -7.57528 -1.55992 0.607143 0.052475
0.577892 0.149338 -0.043422 -0.618319 -2.88035 -0.493094 0.607143 0.034983
0.57762 0.147562 -0.026353 -0.838123 -3.86652 -0.482894 0.589286 0.026237
0.594473 0.147562 -0.047486 -0.657133 -3.86659 -0.709514 0.625 0.026237
0.632341 0.137667 0 -0.12922 -0.986247 -0.103049 0.607143 0
0.484299 0.220907 -0.118059 -4.04118 -6.10592 -2.86144 0.607143 0.10495
0.516047 0.186791 -0.092741 -1.5584 -3.421 -1.05857 0.607143 0.078712
0.438915 0.310017 -0.154252 -5.55372 -3.67955 -3.93357 0.607143 0.157424
0.458295 0.262559 -0.138797 -2.42018 -2.44718 -1.68144 0.607143 0.131187
0.420948 0.439484 -0.168581 -6.22538 -0.78367 -4.4139 0.607143 0.209899
0.42704 0.361554 -0.163722 -2.95429 -1.11631 -2.07867 0.607143 0.183662
0.418917 0.717119 -0.1702 -6.25343 0 -4.4435 0.607143 0.35495
0.418917 0.566124 -0.1702 -3.12038 -0.194318 -2.21312 0.607143 0.282424
0.418917 1.01911 -0.1702 -6.25343 0 -4.4435 0.607143 0.5
0.418917 0.868113 -0.1702 -3.12705 0 -2.2208 0.607143 0.427475
0.418917 1.3211 -0.1702 -6.25343 -1.00612e-007 -4.4435 0.607143 0.64505
0.418917 1.1701 -0.1702 -3.12705 0 -2.2208 0.607143 0.572525
0.905409 0.868113 -0 3.97421 0 -0.453527 1 0.427475
0.905409 1.01911 -0 1.9871 0 -0.226763 1 0.5
0.418917 1.47209 -0.1702 -1.47594 -5.03062e-008 -1.1819 0.607143 0.717576
0.898477 1.3211 -0.060744 7.37208 0 -2.56407 0.964286 0.64505
0.898477 1.1701 -0.060744 3.68551 0 -1.28289 0.964286 0.572525
0.905409 1.1701 -0 3.97421 0 -0.453527 1 0.572525
0.905409 1.3211 -0 1.9871 0 -0.226763 1 0.64505
0.898477 1.47209 -0.060744 1.84382 0 -0.639734 0.964286 0.717576
0.905409 1.47209 -0 1.9871 0 -0.226763 1 0.717576
3 0 1 2 
3 0 2 3 
3 4 1 0 
3 4 0 5 
3 4 6 2 
3 4 2 1 
3 7 8 9 
3 7 9 10 
3 11 8 7 
3 11 7 12 
3 0 8 11 
3 0 11 5 
3 9 8 0 
3 9 0 3 
3 13 14 15 
3 13 15 16 
3 17 14 13 
3 17 13 18 
3 7 14 17 
3 7 17 12 
3 15 14 7 
3 15 7 10 
3 19 20 21 
3 19 21 22 
3 23 20 19 
3 23 19 24 
3 13 20 23 
3 13 23 18 
3 21 20 13 
3 21 13 16 
3 25 26 27 
3 25 27 28 
3 29 26 25 
3 29 25 30 
3 19 26 29 
3 19 29 24 
3 27 26 19 
3 27 19 22 
3 31 32 33 
3 31 33 34 
3 35 32 31 
3 35 31 36 
3 25 32 35 
3 25 35 30 
3 33 32 25 
3 33 25 28 
3 37 38 39 
3 37 39 40 
3 41 38 37 
3 41 37 42 
3 31 38 41 
3 31 41 36 
3 39 38 31 
3 39 31 34 
3 43 44 45 
3 43 45 46 
3 47 44 43 
3 47 43 48 
3 37 49 50 
3 37 50 42 
3 51 49 37 
3 51 37 40 
3 47 52 45 
3 47 45 44 
3 53 54 55 
3 53 55 56 
3 57 54 53 
3 57 53 58 
3 43 54 57 
3 43 57 48 
3 55 54 43 
3 55 43 46 
3 59 60 61 
3 59 61 62 
3 63 60 59 
3 63 59 64 
3 53 60 63 
3 53 63 58 
3 61 60 53 
3 61 53 56 
3 65 66 67 
3 65 67 68 
3 69 66 65 
3 69 65 70 
3 59 66 69 
3 59 69 64 
3 67 66 59 
3 67 59 62 
3 71 72 73 
3 71 73 74 
3 75 72 71 
3 75 71 76 
3 77 78 79 
3 77 79 5 
3 80 78 77 
3 80 77 81 
3 80 82 79 
3 80 79 78 
3 83 84 11 
3 83 11 12 
3 85 84 83 
3 85 83 86 
3 77 84 85 
3 77 85 81 
3 11 84 77 
3 11 77 5 
3 87 88 17 
3 87 17 18 
3 89 88 87 
3 89 87 90 
3 83 88 89 
3 83 89 86 
3 17 88 83 
3 17 83 12 
3 91 92 23 
3 91 23 24 
3 93 92 91 
3 93 91 94 
3 87 92 93 
3 87 93 90 
3 23 92 87 
3 23 87 18 
3 95 96 29 
3 95 29 30 
3 97 96 95 
3 97 95 98 
3 91 96 97 
3 91 97 94 
3 29 96 91 
3 29 91 24 
3 99 100 35 
3 99 35 36 
3 101 100 99 
3 101 99 102 
3 95 100 101 
3 95 101 98 
3 35 100 95 
3 35 95 30 
3 103 104 41 
3 103 41 42 
3 105 104 103 
3 105 103 106 
3 99 104 105 
3 99 105 102 
3 41 104 99 
3 41 99 36 
3 65 72 75 
3 65 75 70 
3 73 72 65 
3 73 65 68 
3 103 107 108 
3 103 108 106 
3 50 107 103 
3 50 103 42 
3 109 110 111 
3 109 111 112 
3 113 110 109 
3 113 109 114 
3 71 110 113 
3 71 113 76 
3 111 110 71 
3 111 71 74 
3 115 116 117 
3 115 117 118 
3 119 116 115 
3 119 115 120 
3 109 116 119 
3 109 119 114 
3 117 116 109 
3 117 109 112 
3 115 121 122 
3 115 122 120 
3 123 121 115 
3 123 115 118 
3 124 125 126 
3 124 126 48 
3 127 125 124 
3 127 124 128 
3 127 129 126 
3 127 126 125 
3 130 131 57 
3 130 57 58 
3 132 131 130 
3 132 130 133 
3 134 135 136 
3 134 136 81 
3 137 135 134 
3 137 134 138 
3 137 139 136 
3 137 136 135 
3 140 141 85 
3 140 85 86 
3 142 141 140 
3 142 140 143 
3 134 141 142 
3 134 142 138 
3 85 141 134 
3 85 134 81 
3 144 145 89 
3 144 89 90 
3 146 145 144 
3 146 144 147 
3 140 145 146 
3 140 146 143 
3 89 145 140 
3 89 140 86 
3 148 149 93 
3 148 93 94 
3 150 149 148 
3 150 148 151 
3 144 149 150 
3 144 150 147 
3 93 149 144 
3 93 144 90 
3 152 153 97 
3 152 97 98 
3 154 153 152 
3 154 152 155 
3 148 153 154 
3 148 154 151 
3 97 153 148 
3 97 148 94 
3 156 157 101 
3 156 101 102 
3 158 157 156 
3 158 156 159 
3 152 157 158 
3 152 158 155 
3 101 157 152 
3 101 152 98 
3 160 161 105 
3 160 105 106 
3 162 161 160 
3 162 160 163 
3 156 161 162 
3 156 162 159 
3 105 161 156 
3 105 156 102 
3 124 131 132 
3 124 132 128 
3 57 131 124 
3 57 124 48 
3 160 164 165 
3 160 165 163 
3 108 164 160 
3 108 160 106 
3 166 167 63 
3 166 63 64 
3 168 167 166 
3 168 166 169 
3 130 167 168 
3 130 168 133 
3 63 167 130 
3 63 130 58 
3 170 171 69 
3 170 69 70 
3 172 171 170 
3 172 170 173 
3 166 171 172 
3 166 172 169 
3 69 171 166 
3 69 166 64 
3 174 175 75 
3 174 75 76 
3 176 175 174 
3 176 174 177 
3 170 175 176 
3 170 176 173 
3 75 175 170 
3 75 170 70 
3 178 179 113 
3 178 113 114 
3 180 179 178 
3 180 178 181 
3 174 179 180 
3 174 180 177 
3 182 183 184 
3 182 184 138 
3 185 183 182 
3 185 182 186 
3 185 187 184 
3 185 184 183 
3 188 189 142 
3 188 142 143 
3 190 189 188 
3 190 188 191 
3 182 189 190 
3 182 190 186 
3 142 189 182 
3 142 182 138 
3 192 193 146 
3 192 146 147 
3 194 193 192 
3 194 192 195 
3 188 193 194 
3 188 194 191 
3 146 193 188 
3 146 188 143 
3 196 197 150 
3 196 150 151 
3 198 197 196 
3 198 196 199 
3 192 197 198 
3 192 198 195 
3 150 197 192 
3 150 192 147 
3 200 201 154 
3 200 154 155 
3 202 201 200 
3 202 200 203 
3 196 201 202 
3 196 202 199 
3 154 201 196 
3 154 196 151 
3 204 205 158 
3 204 158 159 
3 206 205 204 
3 206 204 207 
3 200 205 206 
3 200 206 203 
3 158 205 200 
3 158 200 155 
3 208 209 162 
3 208 162 163 
3 210 209 208 
3 210 208 211 
3 204 209 210 
3 204 210 207 
3 162 209 204 
3 162 204 159 
3 113 179 174 
3 113 174 76 
3 212 213 119 
3 212 119 120 
3 208 214 215 
3 208 215 211 
3 165 214 208 
3 165 208 163 
3 216 213 212 
3 216 212 217 
3 178 213 216 
3 178 216 181 
3 119 213 178 
3 119 178 114 
3 212 218 219 
3 212 219 217 
3 122 218 212 
3 122 212 120 
3 220 221 222 
3 220 222 128 
3 223 221 220 
3 223 220 224 
3 223 225 222 
3 223 222 221 
3 226 227 132 
3 226 132 133 
3 228 227 226 
3 228 226 229 
3 220 227 228 
3 220 228 224 
3 132 227 220 
3 132 220 128 
3 230 231 168 
3 230 168 169 
3 232 231 230 
3 232 230 233 
3 226 231 232 
3 226 232 229 
3 234 235 236 
3 234 236 186 
3 237 235 234 
3 237 234 238 
3 237 239 236 
3 237 236 235 
3 240 241 190 
3 240 190 191 
3 242 241 240 
3 242 240 243 
3 234 241 242 
3 234 242 238 
3 190 241 234 
3 190 234 186 
3 244 245 194 
3 244 194 195 
3 246 245 244 
3 246 244 247 
3 240 245 246 
3 240 246 243 
3 194 245 240 
3 194 240 191 
3 248 249 198 
3 248 198 199 
3 250 249 248 
3 250 248 251 
3 244 249 250 
3 244 250 247 
3 198 249 244 
3 198 244 195 
3 252 253 202 
3 252 202 203 
3 254 253 252 
3 254 252 255 
3 248 253 254 
3 248 254 251 
3 202 253 248 
3 202 248 199 
3 256 257 206 
3 256 206 207 
3 258 257 256 
3 258 256 259 
3 252 257 258 
3 252 258 255 
3 206 257 252 
3 206 252 203 
3 260 261 210 
3 260 210 211 
3 262 261 260 
3 262 260 263 
3 256 261 262 
3 256 262 259 
3 210 261 256 
3 210 256 207 
3 168 231 226 
3 168 226 133 
3 264 265 172 
3 264 172 173 
3 260 266 267 
3 260 267 263 
3 215 266 260 
3 215 260 211 
3 268 265 264 
3 268 264 269 
3 230 265 268 
3 230 268 233 
3 172 265 230 
3 172 230 169 
3 270 271 176 
3 270 176 177 
3 272 271 270 
3 272 270 273 
3 264 271 272 
3 264 272 269 
3 176 271 264 
3 176 264 173 
3 274 275 180 
3 274 180 181 
3 276 275 274 
3 276 274 277 
3 270 275 276 
3 270 276 273 
3 180 275 270 
3 180 270 177 
3 278 279 216 
3 278 216 217 
3 280 279 278 
3 280 278 281 
3 274 279 280 
3 274 280 277 
3 216 279 274 
3 216 274 181 
3 282 283 284 
3 282 284 238 
3 285 283 282 
3 285 282 286 
3 285 287 284 
3 285 284 283 
3 288 289 242 
3 288 242 243 
3 290 289 288 
3 290 288 291 
3 282 289 290 
3 282 290 286 
3 242 289 282 
3 242 282 238 
3 292 293 246 
3 292 246 247 
3 294 293 292 
3 294 292 295 
3 288 293 294 
3 288 294 291 
3 246 293 288 
3 246 288 243 
3 296 297 250 
3 296 250 251 
3 298 297 296 
3 298 296 299 
3 292 297 298 
3 292 298 295 
3 250 297 292 
3 250 292 247 
3 300 301 254 
3 300 254 255 
3 302 301 300 
3 302 300 303 
3 296 301 302 
3 296 302 299 
3 254 301 296 
3 254 296 251 
3 304 305 258 
3 304 258 259 
3 306 305 304 
3 306 304 307 
3 300 305 306 
3 300 306 303 
3 258 305 300 
3 258 300 255 
3 308 309 262 
3 308 262 263 
3 310 309 308 
3 310 308 311 
3 304 309 310 
3 304 310 307 
3 262 309 304 
3 262 304 259 
3 278 312 313 
3 278 313 281 
3 219 312 278 
3 219 278 217 
3 308 314 315 
3 308 315 311 
3 267 314 308 
3 267 308 263 
3 316 317 318 
3 316 318 224 
3 319 317 316 
3 319 316 320 
3 319 321 318 
3 319 318 317 
3 322 323 228 
3 322 228 229 
3 324 323 322 
3 324 322 325 
3 316 323 324 
3 316 324 320 
3 228 323 316 
3 228 316 224 
3 326 327 232 
3 326 232 233 
3 328 327 326 
3 328 326 329 
3 322 327 328 
3 322 328 325 
3 232 327 322 
3 232 322 229 
3 330 331 268 
3 330 268 269 
3 332 331 330 
3 332 330 333 
3 326 331 332 
3 326 332 329 
3 268 331 326 
3 268 326 233 
3 334 335 336 
3 334 336 286 
3 337 335 334 
3 337 334 338 
3 337 339 336 
3 337 336 335 
3 340 341 290 
3 340 290 291 
3 342 341 340 
3 342 340 343 
3 334 341 342 
3 334 342 338 
3 290 341 334 
3 290 334 286 
3 344 345 294 
3 344 294 295 
3 346 345 344 
3 346 344 347 
3 340 345 346 
3 340 346 343 
3 294 345 340 
3 294 340 291 
3 348 349 298 
3 348 298 299 
3 350 349 348 
3 350 348 351 
3 344 349 350 
3 344 350 347 
3 298 349 344 
3 298 344 295 
3 352 353 302 
3 352 302 303 
3 354 353 352 
3 354 352 355 
3 348 353 354 
3 348 354 351 
3 302 353 348 
3 302 348 299 
3 356 357 306 
3 356 306 307 
3 358 357 356 
3 358 356 359 
3 352 357 358 
3 352 358 355 
3 306 357 352 
3 306 352 303 
3 360 361 310 
3 360 310 311 
3 362 361 360 
3 362 360 363 
3 356 361 362 
3 356 362 359 
3 310 361 356 
3 310 356 307 
3 364 365 272 
3 364 272 273 
3 366 365 364 
3 366 364 367 
3 360 368 369 
3 360 369 363 
3 315 368 360 
3 315 360 311 
3 330 365 366 
3 330 366 333 
3 272 365 330 
3 272 330 269 
3 370 371 276 
3 370 276 277 
3 372 371 370 
3 372 370 373 
3 364 371 372 
3 364 372 367 
3 276 371 364 
3 276 364 273 
3 374 375 280 
3 374 280 281 
3 376 375 374 
3 376 374 377 
3 370 375 376 
3 370 376 373 
3 280 375 370 
3 280 370 277 
3 374 378 379 
3 374 379 377 
3 313 378 374 
3 313 374 281 
3 380 381 382 
3 380 382 320 
3 383 381 380 
3 383 380 384 
3 383 385 382 
3 383 382 381 
3 386 387 388 
3 386 388 338 
3 389 387 386 
3 389 386 390 
3 389 391 388 
3 389 388 387 
3 392 393 342 
3 392 342 343 
3 394 393 392 
3 394 392 395 
3 386 393 394 
3 386 394 390 
3 342 393 386 
3 342 386 338 
3 396 397 346 
3 396 346 347 
3 398 397 396 
3 398 396 399 
3 392 397 398 
3 392 398 395 
3 346 397 392 
3 346 392 343 
3 400 401 350 
3 400 350 351 
3 402 401 400 
3 402 400 403 
3 396 401 402 
3 396 402 399 
3 350 401 396 
3 350 396 347 
3 404 405 354 
3 404 354 355 
3 406 405 404 
3 406 404 407 
3 400 405 406 
3 400 406 403 
3 354 405 400 
3 354 400 351 
3 408 409 358 
3 408 358 359 
3 410 409 408 
3 410 408 411 
3 404 409 410 
3 404 410 407 
3 358 409 404 
3 358 404 355 
3 412 413 362 
3 412 362 363 
3 414 413 412 
3 414 412 415 
3 408 413 414 
3 408 414 411 
3 362 413 408 
3 362 408 359 
3 416 417 324 
3 416 324 325 
3 418 417 416 
3 418 416 419 
3 412 420 421 
3 412 421 415 
3 369 420 412 
3 369 412 363 
3 380 417 418 
3 380 418 384 
3 324 417 380 
3 324 380 320 
3 422 423 328 
3 422 328 329 
3 424 423 422 
3 424 422 425 
3 416 423 424 
3 416 424 419 
3 328 423 416 
3 328 416 325 
3 426 427 332 
3 426 332 333 
3 428 427 426 
3 428 426 429 
3 422 427 428 
3 422 428 425 
3 332 427 422 
3 332 422 329 
3 430 431 366 
3 430 366 367 
3 432 431 430 
3 432 430 433 
3 426 431 432 
3 426 432 429 
3 366 431 426 
3 366 426 333 
3 434 435 372 
3 434 372 373 
3 436 437 438 
3 436 438 390 
3 439 437 436 
3 439 436 46 
3 439 440 438 
3 439 438 437 
3 441 442 394 
3 441 394 395 
3 55 442 441 
3 55 441 56 
3 436 442 55 
3 436 55 46 
3 394 442 436 
3 394 436 390 
3 443 444 398 
3 443 398 399 
3 61 444 443 
3 61 443 62 
3 441 444 61 
3 441 61 56 
3 398 444 441 
3 398 441 395 
3 445 446 402 
3 445 402 403 
3 67 446 445 
3 67 445 68 
3 443 446 67 
3 443 67 62 
3 402 446 443 
3 402 443 399 
3 447 448 406 
3 447 406 407 
3 73 448 447 
3 73 447 74 
3 445 448 73 
3 445 73 68 
3 406 448 445 
3 406 445 403 
3 449 450 410 
3 449 410 411 
3 111 450 449 
3 111 449 112 
3 447 450 111 
3 447 111 74 
3 410 450 447 
3 410 447 407 
3 451 452 414 
3 451 414 415 
3 117 452 451 
3 117 451 118 
3 449 452 117 
3 449 117 112 
3 414 452 449 
3 414 449 411 
3 453 435 434 
3 453 434 454 
3 430 435 453 
3 430 453 433 
3 451 455 123 
3 451 123 118 
3 421 455 451 
3 421 451 415 
3 372 435 430 
3 372 430 367 
3 456 457 376 
3 456 376 377 
3 458 457 456 
3 458 456 459 
3 434 457 458 
3 434 458 454 
3 376 457 434 
3 376 434 373 
3 456 460 461 
3 456 461 459 
3 379 460 456 
3 379 456 377 
