ply
format ascii 1.0
comment VCGLIB generated
element vertex 462
property float x
property float y
property float z
property float nx
property float ny
property float nz
property float texture_u
property float texture_v
element face 812
property list uchar int vertex_indices
end_header
-3.46539 0.73781 0 -0.2419744 -0.9701171 0.01791796 0.017857 0.026237
-3.50119 0.74669 0.077485 -0.2581356 -0.9643104 0.0589189 0.035714 0.034983
-3.68246 0.81127 0.11886 -0.3518809 -0.9324924 0.08147212 0.035714 0.052475
-3.684865 0.80905 0 -0.4122055 -0.9108338 0.02163861 0.000000 0.052475
-3.435315 0.73781 0.131765 -0.2258378 -0.9701034 0.08886317 0.053571 0.026237
-3.633055 0.80905 0.22699 -0.289515 -0.9468825 0.1399805 0.071429 0.052475
-3.161705 0.688335 0 -0.161134 -0.986247 0.0367785 0.035714 0.000000
-3.90567 0.933955 0 -0.5725333 -0.8177634 0.05889605 0.000000 0.078712
-3.886785 0.933955 0.165495 -0.5174781 -0.8473442 0.1192662 0.035714 0.078712
-4.08473 1.104535 0.210675 -0.6642875 -0.7327246 0.1477727 0.035714 0.104950
-4.108775 1.104535 0 -0.7133244 -0.6960898 0.08140787 0.000000 0.104950
-3.831995 0.933955 0.322795 -0.441945 -0.8712898 0.2133976 0.071429 0.078712
-4.014985 1.104535 0.410915 -0.5955197 -0.7646382 0.2463427 0.071429 0.104950
-4.27513 1.312795 0 -0.8338687 -0.543697 0.09516538 0.000000 0.131187
-4.246865 1.312795 0.24768 -0.7905114 -0.5864694 0.1764802 0.035714 0.131187
-4.367695 1.550085 0.27526 -0.8856324 -0.4190254 0.2001823 0.035714 0.157424
-4.39911 1.550085 0 -0.9219792 -0.3726704 0.1052196 0.000000 0.157424
-4.164865 1.312795 0.483095 -0.7183602 -0.625428 0.3046286 0.071429 0.131187
-4.27657 1.550085 0.53689 -0.8197547 -0.4614688 0.3391886 0.071429 0.157424
-4.47508 1.80777 0 -0.9752938 -0.1908255 0.1112998 0.000000 0.183662
-4.44174 1.80777 0.29216 -0.9471358 -0.2389349 0.2141117 0.035714 0.183662
-4.479725 2.19742 0.30083 -0.9718335 -0.07935079 0.221908 0.035714 0.209899
-4.514055 2.19742 0 -0.9917805 -0.05968157 0.1131789 0.000000 0.209899
-4.345015 1.80777 0.56985 -0.8844708 -0.2852802 0.3692245 0.071429 0.183662
-4.38013 2.19742 0.58676 -0.919264 -0.09818566 0.3811997 0.071429 0.209899
-4.527045 2.83062 0 -0.9934999 -0.01018961 0.1133757 0.000000 0.282424
-4.492385 2.83062 0.30372 -0.9745255 -0.02972574 0.2222982 0.035714 0.282424
-4.492385 3.585595 0.30372 -0.9748709 0 0.2227703 0.035714 0.354950
-4.527045 3.585595 0 -0.9935516 0 0.1133817 0.000000 0.354950
-4.391835 2.83062 0.5924 -0.9226564 -0.04878508 0.3825248 0.071429 0.282424
-4.391835 3.585595 0.5924 -0.9236302 0 0.3832847 0.071429 0.354950
-4.527045 4.340565 0 -0.9935516 0 0.1133816 0.000000 0.427475
-4.492385 4.340565 0.30372 -0.9749284 0 0.2225189 0.035714 0.427475
-4.492385 5.09555 0.30372 -0.9748709 0 0.2227703 0.035714 0.500000
-4.527045 5.09555 0 -0.9935516 0 0.1133817 0.000000 0.500000
-4.391835 4.34057 0.5924 -0.9237297 0 0.3830452 0.071429 0.427475
-4.391835 5.09555 0.5924 -0.9236302 0 0.3832847 0.071429 0.500000
-4.527045 5.8505 0 -0.9935516 0 0.1133816 0.000000 0.572525
-4.492385 5.8505 0.30372 -0.9749284 0 0.2225189 0.035714 0.572525
-4.492385 6.6055 0.30372 -0.9748709 1.150172e-08 0.2227703 0.035714 0.645050
-4.527045 6.6055 0 -0.9935516 0 0.1133817 0.000000 0.645050
-4.391835 5.8505 0.5924 -0.9237297 2.49861e-09 0.3830452 0.071429 0.572525
-4.391835 6.6055 0.5924 -0.9236302 3.092558e-08 0.3832847 0.071429 0.645050
-2.972365 0.73781 -0.23743 0.1368625 -0.9701171 -0.2003533 0.660714 0.026237
-3.01062 0.74669 -0.31373 0.1148816 -0.9643105 -0.2385531 0.678571 0.034983
-2.92995 0.81127 -0.48125 0.155697 -0.9324924 -0.3259086 0.678571 0.052475
-2.83552 0.80905 -0.40902 0.220086 -0.9300859 -0.2941127 0.642857 0.052475
-3.09413 0.73781 -0.29607 0.07133189 -0.9701032 -0.2319728 0.696429 0.026237
-3.04529 0.80905 -0.51004 0.07106877 -0.9468828 -0.3136276 0.714286 0.052475
-4.391835 7.36045 0.592395 -0.9435068 4.357809e-08 0.3313532 0.071429 0.717576
-4.492385 7.36045 0.30372 -0.9749285 9.91666e-09 0.2225184 0.035714 0.717576
-4.527045 7.36045 0 -0.9935516 0 0.1133817 0.000000 0.717576
-3.161705 0.688335 0 0.0717129 -0.9862468 -0.148911 0.678571 0.000000
-2.69785 0.933955 -0.581655 0.2942382 -0.8451245 -0.4463053 0.642857 0.078712
-2.839015 0.933955 -0.6700749 0.2293963 -0.8473454 -0.4789396 0.678571 0.078712
-2.75092 1.104535 -0.853005 0.2986793 -0.7327299 -0.6114716 0.678571 0.104950
-2.57122 1.104535 -0.74045 0.3629891 -0.7306754 -0.5782322 0.642857 0.104950
-2.99616 0.933955 -0.725315 0.1087053 -0.8712903 -0.4785774 0.714286 0.078712
-2.950965 1.104535 -0.9233249 0.1786999 -0.7646413 -0.619185 0.714286 0.104950
-2.467495 1.312795 -0.87051 0.4315435 -0.584094 -0.6874623 0.642857 0.131187
-2.678765 1.312795 -1.00284 0.3548991 -0.5864692 -0.72808 0.678571 0.131187
-2.62499 1.550085 -1.114505 0.3957408 -0.4190263 -0.8171941 0.678571 0.157424
-2.390195 1.550085 -0.96744 0.4834985 -0.4169504 -0.7696633 0.642857 0.157424
-2.913945 1.312795 -1.08551 0.2097208 -0.6254252 -0.7515721 0.714286 0.131187
-2.88636 1.550085 -1.20638 0.2459159 -0.4614614 -0.8523959 0.714286 0.157424
-2.34283 1.80777 -1.026835 0.5168954 -0.2375169 -0.8224384 0.642857 0.183662
-2.59204 1.80777 -1.18293 0.4231305 -0.2389283 -0.8739988 0.678571 0.183662
-2.575135 2.19742 -1.21803 0.4325506 -0.07935029 -0.898111 0.678571 0.209899
-2.31853 2.19742 -1.05731 0.5313498 -0.0788905 -0.8434712 0.642857 0.209899
-2.869455 1.80777 -1.280445 0.2627861 -0.2852716 -0.9217178 0.714286 0.183662
-2.86078 2.19742 -1.31844 0.2751196 -0.09817863 -0.956384 0.714286 0.209899
-2.31043 2.83062 -1.067465 0.5330466 -0.02955877 -0.8455694 0.642857 0.282424
-2.5695 2.83062 -1.22973 0.4338033 -0.02972496 -0.9005171 0.678571 0.282424
-2.5695 3.585595 -1.22973 0.4338826 -1.570854e-06 -0.9009694 0.678571 0.354950
-2.31043 3.585595 -1.067465 0.5342682 0 -0.845315 0.642857 0.354950
-2.85789 2.83062 -1.331105 0.276205 -0.04878363 -0.9598598 0.714286 0.282424
-2.85789 3.585595 -1.33111 0.2762187 -3.165904e-06 -0.9610948 0.714286 0.354950
-3.435315 0.73781 0.131765 -0.2102379 -0.9701173 0.12113 0.089286 0.026237
-3.43395 0.74669 0.21711 -0.2070083 -0.9643105 0.1650846 0.107143 0.034983
-3.57932 0.81127 0.333035 -0.24533 -0.949367 0.1962537 0.107143 0.052475
-3.35105 0.73781 0.23743 -0.1649157 -0.9701033 0.1780518 0.125000 0.026237
-3.48789 0.80905 0.40902 -0.2001067 -0.946882 0.2517374 0.142857 0.052475
-3.161705 0.688335 0 -0.12922 -0.9862469 0.103049 0.107143 0.000000
-3.743175 0.933955 0.463705 -0.3809682 -0.8730385 0.3044126 0.107143 0.078712
-3.901915 1.104535 0.590295 -0.5216413 -0.7686443 0.3702382 0.107143 0.104950
-3.62556 0.933955 0.581655 -0.3055866 -0.8712912 0.3840164 0.142857 0.078712
-3.752195 1.104535 0.74045 -0.4296608 -0.764642 0.4803273 0.142857 0.104950
-4.031935 1.312795 0.693985 -0.6296421 -0.6294852 0.4553012 0.107143 0.131187
-4.128835 1.550085 0.77126 -0.7214215 -0.4661201 0.5121359 0.107143 0.157424
-3.855915 1.312795 0.87051 -0.5150497 -0.6254271 0.586144 0.142857 0.131187
-3.933215 1.550085 0.96744 -0.591408 -0.4614638 0.6612774 0.142857 0.157424
-4.18821 1.80777 0.81861 -0.7790143 -0.2884961 0.5566925 0.107143 0.183662
-4.218675 2.19742 0.842905 -0.8109999 -0.09954669 0.5765151 0.107143 0.209899
-3.98058 1.80777 1.026835 -0.6366823 -0.2852778 0.7164162 0.142857 0.183662
-4.00488 2.19742 1.05731 -0.6628349 -0.09819017 0.7422995 0.142857 0.209899
-4.228825 2.83062 0.851 -0.8140969 -0.04946076 0.578619 0.107143 0.282424
-4.228825 3.585595 0.851 -0.8149266 0 0.5795642 0.107143 0.354950
-4.01298 2.83062 1.067465 -0.6653188 -0.04878894 0.7449634 0.142857 0.282424
-4.01298 3.585595 1.067465 -0.6658658 0 0.7460715 0.142857 0.354950
-4.228825 4.34057 0.851 -0.8150762 0 0.5793538 0.107143 0.427475
-4.228825 5.09555 0.851 -0.8149266 0 0.5795642 0.107143 0.500000
-4.01298 4.34057 1.067465 -0.666059 0 0.7458991 0.142857 0.427475
-4.01298 5.09555 1.067465 -0.6658658 0 0.7460715 0.142857 0.500000
-4.228825 5.8505 0.851 -0.8150762 0 0.5793538 0.107143 0.572525
-4.228825 6.6055 0.851 -0.8149266 1.306618e-08 0.5795642 0.107143 0.645050
-4.01298 5.8505 1.067465 -0.666059 0 0.7458991 0.142857 0.572525
-4.01298 6.6055 1.067465 -0.6658658 0 0.7460715 0.142857 0.645050
-4.01298 7.36045 1.067465 -0.7063038 0 0.7079088 0.142857 0.717576
-4.228825 7.36045 0.851 -0.8463955 2.633796e-08 0.5325548 0.107143 0.717576
-2.31043 4.340565 -1.067465 0.5338364 0 -0.8455878 0.642857 0.427475
-2.5695 4.340565 -1.22973 0.4338839 -7.816979e-07 -0.9009688 0.678571 0.427475
-2.5695 5.09555 -1.22973 0.4338862 0 -0.9009677 0.678571 0.500000
-2.31043 5.09555 -1.067465 0.5342682 0 -0.845315 0.642857 0.500000
-2.85789 4.340565 -1.33111 0.2764668 -1.543904e-06 -0.9610235 0.714286 0.427475
-2.85789 5.09555 -1.33111 0.2762217 0 -0.961094 0.714286 0.500000
-2.31043 5.8505 -1.067465 0.5338364 0 -0.8455878 0.642857 0.572525
-2.5695 5.8505 -1.22973 0.433886 0 -0.9009678 0.678571 0.572525
-2.5695 6.6055 -1.22973 0.4338877 -7.190781e-07 -0.9009669 0.678571 0.645050
-2.31043 6.6055 -1.067465 0.53427 -7.004508e-07 -0.8453139 0.642857 0.645050
-2.85789 5.8505 -1.33111 0.2764706 0 -0.9610223 0.714286 0.572525
-2.85789 6.6055 -1.33111 0.2762217 -2.824563e-08 -0.961094 0.714286 0.645050
-2.85789 7.36045 -1.33111 0.329218 -5.635034e-08 -0.944254 0.714286 0.717576
-2.5695 7.36045 -1.229735 0.4338894 -1.438198e-06 -0.9009662 0.678571 0.717576
-2.31043 7.36045 -1.067465 0.5342599 -1.400908e-06 -0.8453202 0.642857 0.717576
-3.09413 0.73781 -0.29607 0.03638112 -0.9701172 -0.2398937 0.732143 0.026237
-3.161705 0.74669 -0.348215 -7.982016e-08 -0.9643108 -0.2647729 0.750000 0.034983
-3.161705 0.81127 -0.53415 -0.0004772618 -0.9493678 -0.3141666 0.750000 0.052475
-3.22928 0.73781 -0.29607 -0.03638528 -0.9701034 -0.2399486 0.767857 0.026237
-3.27812 0.80905 -0.51004 -0.07205352 -0.9468828 -0.3134026 0.785714 0.052475
-3.161705 0.688335 0 0 -0.9862469 -0.165279 0.750000 0.000000
-3.161705 0.933955 -0.743725 -0.0004736424 -0.8730388 -0.4876505 0.750000 0.078712
-3.161705 1.104535 -0.946765 0.03577268 -0.7686456 -0.6386737 0.750000 0.104950
-3.327255 0.933955 -0.725315 -0.1097093 -0.8712909 -0.4783472 0.785714 0.078712
-3.37245 1.104535 -0.9233249 -0.1076482 -0.7646423 -0.6354008 0.785714 0.104950
-3.35105 0.73781 0.23743 -0.1368612 -0.9701171 0.2003541 0.160714 0.026237
-3.31279 0.74669 0.31373 -0.1148803 -0.9643105 0.2385535 0.178571 0.034983
-3.393465 0.81127 0.48125 -0.1358831 -0.9493672 0.2832624 0.178571 0.052475
-3.22928 0.73781 0.29607 -0.07132964 -0.9701033 0.2319733 0.196429 0.026237
-3.27812 0.80905 0.51004 -0.07106752 -0.9468828 0.3136276 0.214286 0.052475
-3.161705 0.688335 0 -0.07171049 -0.9862469 0.148912 0.178571 0.000000
-3.484395 0.933955 0.6700749 -0.2111578 -0.8730389 0.4395628 0.178571 0.078712
-3.57249 1.104535 0.853005 -0.3093417 -0.768645 0.559904 0.178571 0.104950
-3.327255 0.933955 0.725315 -0.1087053 -0.8712908 0.4785764 0.214286 0.078712
-3.37245 1.104535 0.9233249 -0.1787036 -0.7646397 0.6191858 0.214286 0.104950
-3.644645 1.312795 1.00284 -0.3697415 -0.6294838 0.6834043 0.178571 0.131187
-3.69842 1.550085 1.114505 -0.4277712 -0.4661176 0.7744328 0.178571 0.157424
-3.409465 1.312795 1.08551 -0.2097233 -0.6254262 0.7515705 0.214286 0.131187
-3.437055 1.550085 1.20638 -0.2459175 -0.4614642 0.8523939 0.214286 0.157424
-3.731375 1.80777 1.18293 -0.4603284 -0.288489 0.8395664 0.178571 0.183662
-3.74828 2.19742 1.21803 -0.4805458 -0.09953925 0.8713022 0.178571 0.209899
-3.45396 1.80777 1.280445 -0.262786 -0.2852728 0.9217174 0.214286 0.183662
-3.46263 2.19742 1.31844 -0.2751173 -0.09817694 0.9563847 0.214286 0.209899
-3.753915 2.83062 1.22973 -0.482423 -0.04945876 0.8745409 0.178571 0.282424
-3.753915 3.585595 1.22973 -0.4827616 0 0.8757518 0.178571 0.354950
-3.465525 2.83062 1.331105 -0.2762024 -0.04878097 0.9598607 0.214286 0.282424
-3.465525 3.585595 1.331105 -0.2762134 0 0.9610963 0.214286 0.354950
-3.753915 4.34057 1.22973 -0.4829873 0 0.8756274 0.178571 0.427475
-3.753915 5.09555 1.22973 -0.4827616 0 0.8757518 0.178571 0.500000
-3.465525 4.34057 1.331105 -0.2764626 0 0.9610246 0.214286 0.427475
-3.465525 5.09555 1.331105 -0.2762134 0 0.9610963 0.214286 0.500000
-3.753915 5.8505 1.22973 -0.4829873 0 0.8756274 0.178571 0.572525
-3.753915 6.6055 1.22973 -0.4827616 0 0.8757518 0.178571 0.645050
-3.465525 5.8505 1.331105 -0.2764626 0 0.9610246 0.214286 0.572525
-3.465525 6.6055 1.331105 -0.2762134 0 0.9610963 0.214286 0.645050
-3.465525 7.36045 1.331105 -0.3292053 0 0.9442583 0.214286 0.717576
-3.753915 7.36045 1.22973 -0.5315058 0 0.8470547 0.178571 0.717576
-3.161705 1.312795 -1.113065 0.03660683 -0.6294841 -0.7761506 0.750000 0.131187
-3.161705 1.550085 -1.237005 0.04939467 -0.4661169 -0.8833432 0.750000 0.157424
-3.409465 1.312795 -1.08551 -0.1371375 -0.6254277 -0.7681364 0.785714 0.131187
-3.437055 1.550085 -1.20638 -0.1482698 -0.4614643 -0.8746809 0.785714 0.157424
-3.161705 1.80777 -1.31295 0.05046875 -0.2884885 -0.9561523 0.750000 0.183662
-3.161705 2.19742 -1.35191 0.05491482 -0.09953559 -0.9935175 0.750000 0.209899
-3.45396 1.80777 -1.280445 -0.1631491 -0.2852727 -0.9444585 0.785714 0.183662
-3.46263 2.19742 -1.31844 -0.1670781 -0.09817793 -0.9810433 0.785714 0.209899
-3.161705 2.83062 -1.3649 0.05520236 -0.04945742 -0.9972495 0.750000 0.282424
-3.161705 3.585595 -1.3649 0.05498018 -3.296991e-06 -0.9984875 0.750000 0.354950
-3.465525 2.83062 -1.331105 -0.1676174 -0.04878381 -0.9846444 0.785714 0.282424
-3.465525 3.585595 -1.33111 -0.1681467 -3.24739e-06 -0.9857619 0.785714 0.354950
-3.161705 4.340565 -1.3649 0.05523825 -1.608599e-06 -0.9984732 0.750000 0.427475
-3.161705 5.09555 -1.3649 0.05498399 0 -0.9984872 0.750000 0.500000
-3.465525 4.340565 -1.33111 -0.167892 -1.626156e-06 -0.9858055 0.785714 0.427475
-3.465525 5.09555 -1.33111 -0.1681426 0 -0.9857627 0.785714 0.500000
-3.22928 0.73781 0.29607 -0.03638112 -0.9701173 0.2398935 0.232143 0.026237
-3.161705 0.74669 0.348215 -6.734825e-08 -0.9643108 0.2647729 0.250000 0.034983
-3.161705 0.81127 0.53415 0.00047754 -0.9493678 0.3141666 0.250000 0.052475
-3.09413 0.73781 0.29607 0.03638503 -0.9701036 0.2399487 0.267857 0.026237
-3.04529 0.80905 0.51004 0.07205378 -0.9468828 0.3134026 0.285714 0.052475
-3.161705 0.688335 0 0 -0.9862469 0.165279 0.250000 0.000000
-3.161705 0.933955 0.743725 0.0004749235 -0.8730388 0.4876505 0.250000 0.078712
-3.161705 1.104535 0.946765 -0.03577268 -0.7686456 0.6386737 0.250000 0.104950
-2.99616 0.933955 0.725315 0.1097082 -0.871291 0.4783473 0.285714 0.078712
-2.950965 1.104535 0.9233249 0.1076482 -0.7646423 0.6354008 0.285714 0.104950
-3.161705 1.312795 1.113065 -0.03660734 -0.6294841 0.7761505 0.250000 0.131187
-3.161705 1.550085 1.237005 -0.04939454 -0.4661169 0.8833432 0.250000 0.157424
-2.913945 1.312795 1.08551 0.1371374 -0.6254262 0.7681376 0.285714 0.131187
-2.88636 1.550085 1.20638 0.1482697 -0.4614633 0.8746815 0.285714 0.157424
-3.161705 1.80777 1.31295 -0.05046875 -0.2884885 0.9561523 0.250000 0.183662
-3.161705 2.19742 1.35191 -0.05491356 -0.09953523 0.9935176 0.250000 0.209899
-2.869455 1.80777 1.280445 0.1631505 -0.285273 0.9444582 0.285714 0.183662
-2.86078 2.19742 1.31844 0.1670793 -0.09817916 0.981043 0.285714 0.209899
-3.161705 2.83062 1.3649 -0.05520059 -0.04945539 0.9972498 0.250000 0.282424
-3.161705 3.585595 1.3649 -0.05497499 0 0.9984877 0.250000 0.354950
-2.85789 2.83062 1.331105 0.1676175 -0.04878255 0.9846444 0.285714 0.282424
-2.85789 3.585595 1.331105 0.1681521 0 0.985761 0.285714 0.354950
-3.161705 4.34057 1.3649 -0.05523307 0 0.9984735 0.250000 0.427475
-3.161705 5.09555 1.3649 -0.05497499 0 0.9984877 0.250000 0.500000
-2.85789 4.34057 1.331105 0.1678968 0 0.9858045 0.285714 0.427475
-2.85789 5.09555 1.331105 0.1681521 0 0.985761 0.285714 0.500000
-3.161705 5.8505 1.3649 -0.05523307 0 0.9984735 0.250000 0.572525
-3.161705 6.6055 1.3649 -0.05497499 0 0.9984877 0.250000 0.645050
-2.85789 5.8505 1.331105 0.1678968 0 0.9858045 0.285714 0.572525
-2.85789 6.6055 1.331105 0.1681521 0 0.985761 0.285714 0.645050
-3.161705 5.8505 -1.3649 0.05524219 0 -0.998473 0.750000 0.572525
-3.161705 6.6055 -1.3649 0.05498399 -1.423411e-08 -0.9984872 0.750000 0.645050
-2.85789 7.36045 1.331105 0.1131051 0 0.993583 0.285714 0.717576
-3.161705 7.36045 1.3649 -0.1113407 0 0.9937823 0.250000 0.717576
-3.465525 5.8505 -1.33111 -0.1678883 0 -0.985806 0.785714 0.572525
-3.465525 6.6055 -1.33111 -0.1681426 -1.433576e-08 -0.9857627 0.785714 0.645050
-3.465525 7.36045 -1.33111 -0.1130875 -2.853557e-08 -0.9935851 0.785714 0.717576
-3.161705 7.36045 -1.3649 0.1113569 -2.869201e-08 -0.9937804 0.750000 0.717576
-3.22928 0.73781 -0.29607 -0.07130954 -0.970117 -0.2319222 0.803571 0.026237
-3.31279 0.74669 -0.31373 -0.1148803 -0.9643105 -0.2385535 0.821429 0.034983
-3.393465 0.81127 -0.48125 -0.1367429 -0.9493672 -0.2828488 0.821429 0.052475
-3.35105 0.73781 -0.23743 -0.1368889 -0.9701034 -0.2004018 0.839286 0.026237
-3.48789 0.80905 -0.40902 -0.200895 -0.9468824 -0.2511075 0.857143 0.052475
-3.161705 0.688335 0 -0.07171049 -0.9862469 -0.148912 0.821429 0.000000
-3.484395 0.933955 -0.6700749 -0.2120115 -0.8730388 -0.4391519 0.821429 0.078712
-3.57249 1.104535 -0.853005 -0.2448805 -0.7686459 -0.5909457 0.821429 0.104950
-3.62556 0.933955 -0.581655 -0.306389 -0.8712914 -0.3833759 0.857143 0.078712
-3.752195 1.104535 -0.74045 -0.3726793 -0.7646422 -0.5257685 0.857143 0.104950
-3.644645 1.312795 -1.00284 -0.3037775 -0.629485 -0.7151698 0.821429 0.131187
-3.69842 1.550085 -1.114505 -0.3387651 -0.4661174 -0.817296 0.821429 0.157424
-3.855915 1.312795 -0.87051 -0.4568422 -0.6254279 -0.6325623 0.857143 0.131187
-3.933215 1.550085 -0.96744 -0.5131012 -0.4614634 -0.7237256 0.857143 0.157424
-3.09413 0.73781 0.29607 0.07131153 -0.970117 0.2319217 0.303571 0.026237
-3.01062 0.74669 0.31373 0.1148816 -0.9643105 0.2385531 0.321429 0.034983
-2.92995 0.81127 0.48125 0.1367429 -0.9493672 0.2828488 0.321429 0.052475
-2.972365 0.73781 0.23743 0.1368899 -0.9701034 0.200401 0.339286 0.026237
-2.83552 0.80905 0.40902 0.2008938 -0.9468826 0.2511076 0.357143 0.052475
-3.161705 0.688335 0 0.0717129 -0.9862468 0.148911 0.321429 0.000000
-2.839015 0.933955 0.6700749 0.2120115 -0.8730388 0.4391519 0.321429 0.078712
-2.75092 1.104535 0.853005 0.244882 -0.7686452 0.5909462 0.321429 0.104950
-2.69785 0.933955 0.581655 0.3063901 -0.8712899 0.3833784 0.357143 0.078712
-2.57122 1.104535 0.74045 0.3726814 -0.7646415 0.525768 0.357143 0.104950
-2.678765 1.312795 1.00284 0.303778 -0.6294835 0.715171 0.321429 0.131187
-2.62499 1.550085 1.114505 0.3387654 -0.4661165 0.8172964 0.321429 0.157424
-2.467495 1.312795 0.87051 0.4568445 -0.6254264 0.6325622 0.357143 0.131187
-2.390195 1.550085 0.96744 0.5131022 -0.4614642 0.7237244 0.357143 0.157424
-2.59204 1.80777 1.18293 0.3693874 -0.2884885 0.8833613 0.321429 0.183662
-2.575135 2.19742 1.21803 0.3815919 -0.09953853 0.9189557 0.321429 0.209899
-2.34283 1.80777 1.026835 0.5567819 -0.2852765 0.7801355 0.357143 0.183662
-2.31853 2.19742 1.05731 0.5761917 -0.09818518 0.8113956 0.357143 0.209899
-2.5695 2.83062 1.22973 0.3829525 -0.04945749 0.9224431 0.321429 0.282424
-2.5695 3.585595 1.22973 0.3836919 0 0.9234611 0.321429 0.354950
-2.31043 2.83062 1.067465 0.5782368 -0.04878495 0.8144092 0.357143 0.282424
-2.31043 3.585595 1.067465 0.5791943 0 0.8151895 0.357143 0.354950
-2.5695 4.34057 1.22973 0.3834537 0 0.9235601 0.321429 0.427475
-2.5695 5.09555 1.22973 0.3836919 0 0.9234611 0.321429 0.500000
-2.31043 4.34057 1.067465 0.5789835 0 0.8153391 0.357143 0.427475
-2.31043 5.09555 1.067465 0.5791943 0 0.8151895 0.357143 0.500000
-2.5695 5.8505 1.22973 0.3834537 0 0.9235601 0.321429 0.572525
-2.5695 6.6055 1.22973 0.3836919 0 0.9234611 0.321429 0.645050
-2.31043 5.8505 1.067465 0.5789835 0 0.8153391 0.357143 0.572525
-2.31043 6.6055 1.067465 0.5791943 0 0.8151895 0.357143 0.645050
-3.731375 1.80777 -1.18293 -0.3693882 -0.2884891 -0.8833609 0.821429 0.183662
-3.74828 2.19742 -1.21803 -0.381595 -0.0995379 -0.9189545 0.821429 0.209899
-2.31043 7.36045 1.067465 0.5329878 0 0.846123 0.357143 0.717576
-2.5695 7.36045 1.22973 0.3308665 0 0.9436776 0.321429 0.717576
-3.98058 1.80777 -1.026835 -0.5567825 -0.2852774 -0.7801346 0.857143 0.183662
-4.00488 2.19742 -1.05731 -0.5761961 -0.0981861 -0.8113923 0.857143 0.209899
-3.753915 2.83062 -1.22973 -0.3829578 -0.04945801 -0.9224409 0.821429 0.282424
-3.753915 3.585595 -1.22973 -0.3836955 -1.622626e-06 -0.9234597 0.821429 0.354950
-4.01298 2.83062 -1.067465 -0.5782419 -0.04878496 -0.8144056 0.857143 0.282424
-4.01298 3.585595 -1.067465 -0.5792 0 -0.8151855 0.857143 0.354950
-3.753915 4.340565 -1.22973 -0.3834598 -8.175861e-07 -0.9235576 0.821429 0.427475
-3.753915 5.09555 -1.22973 -0.3836955 0 -0.9234597 0.821429 0.500000
-4.01298 4.340565 -1.067465 -0.5789895 0 -0.8153349 0.857143 0.427475
-4.01298 5.09555 -1.067465 -0.5792 0 -0.8151855 0.857143 0.500000
-3.753915 5.8505 -1.22973 -0.3834577 0 -0.9235585 0.821429 0.572525
-3.753915 6.6055 -1.22973 -0.3836955 -2.750949e-08 -0.9234597 0.821429 0.645050
-4.01298 5.8505 -1.067465 -0.5789895 0 -0.8153349 0.857143 0.572525
-4.01298 6.6055 -1.067465 -0.5792 -2.544406e-08 -0.8151855 0.857143 0.645050
-2.972365 0.73781 0.23743 0.1648729 -0.9701173 0.1780152 0.375000 0.026237
-2.88946 0.74669 0.21711 0.2070067 -0.9643111 0.1650827 0.392857 0.034983
-2.74409 0.81127 0.333035 0.2459216 -0.9493683 0.1955055 0.392857 0.052475
-2.8881 0.73781 0.131765 0.2102838 -0.970104 0.1211574 0.410714 0.026237
-2.690355 0.80905 0.22699 0.2899503 -0.9468836 0.1390694 0.428571 0.052475
-3.161705 0.688335 0 0.12922 -0.9862469 0.103049 0.392857 0.000000
-2.580235 0.933955 0.463705 0.3815553 -0.8730389 0.3036752 0.392857 0.078712
-2.421495 1.104535 0.590295 0.4770356 -0.7686436 0.4261738 0.392857 0.104950
-2.491415 0.933955 0.322795 0.44239 -0.8712907 0.2124707 0.428571 0.078712
-2.308425 1.104535 0.410915 0.5638992 -0.7646387 0.3120023 0.428571 0.104950
-2.291475 1.312795 0.693985 0.5839983 -0.6294838 0.512539 0.392857 0.131187
-2.194575 1.550085 0.77126 0.6598313 -0.4661178 0.58937 0.392857 0.157424
-2.158545 1.312795 0.483095 0.6860611 -0.6254246 0.3717046 0.428571 0.131187
-2.046845 1.550085 0.53689 0.7763017 -0.4614632 0.429427 0.428571 0.157424
-2.1352 1.80777 0.81861 0.7160844 -0.2884911 0.6356068 0.392857 0.183662
-2.10474 2.19742 0.842905 0.7425246 -0.09953965 0.6623814 0.392857 0.209899
-1.978395 1.80777 0.56985 0.8401325 -0.2852742 0.4612982 0.428571 0.183662
-1.943285 2.19742 0.58676 0.871184 -0.09817879 0.4810399 0.428571 0.209899
-2.094585 2.83062 0.851 0.7452634 -0.04945755 0.6649334 0.392857 0.282424
-2.094585 3.585595 0.851 0.7463706 0 0.6655306 0.392857 0.354950
-1.93158 2.83062 0.5924 0.8743338 -0.04878242 0.4828672 0.428571 0.282424
-1.93158 3.585595 0.5924 0.8755369 0 0.4831514 0.428571 0.354950
-2.094585 4.34057 0.851 0.7461975 0 0.6657246 0.392857 0.427475
-2.094585 5.09555 0.851 0.7463706 0 0.6655306 0.392857 0.500000
-1.93158 4.34057 0.5924 0.8754119 0 0.4833778 0.428571 0.427475
-1.93158 5.09555 0.5924 0.8755369 0 0.4831514 0.428571 0.500000
-2.094585 5.8505 0.851 0.7462 4.489625e-07 0.6657219 0.392857 0.572525
-2.094585 6.6055 0.851 0.7463713 8.857701e-07 0.6655299 0.392857 0.645050
-1.93158 5.8505 0.5924 0.8754124 7.14618e-07 0.4833768 0.428571 0.572525
-1.93158 6.6055 0.592395 0.8755385 1.571768e-06 0.4831484 0.428571 0.645050
-4.01298 7.36045 -1.067465 -0.5329954 -5.076079e-08 -0.8461182 0.857143 0.717576
-3.753915 7.36045 -1.229735 -0.3308634 -5.556912e-08 -0.9436787 0.821429 0.717576
-1.93158 7.36045 0.592395 0.8473319 1.714091e-06 0.5310637 0.428571 0.717576
-2.094585 7.36045 0.851 0.707545 8.885462e-07 0.7066683 0.392857 0.717576
-3.35105 0.73781 -0.23743 -0.1648754 -0.970117 -0.1780144 0.875000 0.026237
-3.43395 0.74669 -0.21711 -0.2070083 -0.9643105 -0.1650846 0.892857 0.034983
-3.57932 0.81127 -0.333035 -0.2459229 -0.9493672 -0.1955093 0.892857 0.052475
-3.435315 0.73781 -0.131765 -0.2102834 -0.9701036 -0.1211611 0.910714 0.026237
-3.633055 0.80905 -0.22699 -0.2899502 -0.946883 -0.1390736 0.928571 0.052475
-3.161705 0.688335 0 -0.12922 -0.9862469 -0.103049 0.892857 0.000000
-3.743175 0.933955 -0.463705 -0.3815553 -0.8730389 -0.3036752 0.892857 0.078712
-3.901915 1.104535 -0.590295 -0.4770344 -0.768645 -0.4261726 0.892857 0.104950
-3.831995 0.933955 -0.322795 -0.4423896 -0.87129 -0.2124743 0.928571 0.078712
-4.014985 1.104535 -0.410915 -0.5638992 -0.7646387 -0.3120023 0.928571 0.104950
-4.031935 1.312795 -0.693985 -0.5839965 -0.6294847 -0.5125397 0.892857 0.131187
-4.128835 1.550085 -0.77126 -0.6598276 -0.4661208 -0.5893716 0.892857 0.157424
-4.164865 1.312795 -0.483095 -0.6860592 -0.6254277 -0.3717029 0.928571 0.131187
-4.27657 1.550085 -0.53689 -0.7762969 -0.4614709 -0.4294271 0.928571 0.157424
-4.18821 1.80777 -0.81861 -0.7160821 -0.2884964 -0.6356071 0.892857 0.183662
-4.218675 2.19742 -0.842905 -0.7425247 -0.09954572 -0.6623802 0.892857 0.209899
-4.345015 1.80777 -0.56985 -0.8401281 -0.2852817 -0.4613017 0.928571 0.183662
-4.38013 2.19742 -0.58676 -0.8711826 -0.09818795 -0.4810406 0.928571 0.209899
-2.8881 0.73781 0.131765 0.2257821 -0.9701176 0.08884934 0.446429 0.026237
-2.82222 0.74669 0.077485 0.2581331 -0.9643111 0.05891794 0.464286 0.034983
-2.64095 0.81127 0.11886 0.3063938 -0.9493685 0.06944247 0.464286 0.052475
-2.858025 0.73781 0 0.2420275 -0.9701039 0.01792241 0.482143 0.026237
-2.638545 0.80905 0 0.3215754 -0.9468839 -0.0005054707 0.500000 0.052475
-3.161705 0.688335 0 0.161134 -0.986247 0.0367785 0.464286 0.000000
-2.436625 0.933955 0.165495 0.4755307 -0.8730385 0.1080474 0.464286 0.078712
-2.23868 1.104535 0.210675 0.6147061 -0.7686423 0.1769902 0.464286 0.104950
-2.41774 0.933955 0 0.4907682 -0.87129 -0.000514597 0.500000 0.078712
-2.21464 1.104535 0 0.6434312 -0.7646364 0.03643522 0.500000 0.104950
-2.076545 1.312795 0.24768 0.748548 -0.6294811 0.2083975 0.464286 0.131187
-1.955715 1.550085 0.27526 0.850205 -0.466116 0.2447187 0.464286 0.157424
-2.04828 1.312795 0 0.7793974 -0.6254233 0.03722044 0.500000 0.131187
-1.9243 1.550085 0 0.8857443 -0.4614638 0.05007976 0.500000 0.157424
-1.881675 1.80777 0.29216 0.9209493 -0.2884884 0.2619675 0.464286 0.183662
-1.84369 2.19742 0.30083 0.9563876 -0.09953557 0.2746185 0.464286 0.209899
-1.84833 1.80777 0 0.9570831 -0.2852729 0.05110009 0.500000 0.183662
-1.80936 2.19742 0 0.9936249 -0.09817891 0.05541176 0.500000 0.209899
-1.83103 2.83062 0.30372 0.9599615 -0.04945588 0.2757317 0.464286 0.282424
-1.83103 3.585595 0.30372 0.9612179 0 0.2757899 0.464286 0.354950
-1.796365 2.83062 0 0.9972556 -0.0487823 0.05569211 0.500000 0.282424
-1.796365 3.585595 0 0.9984625 0 0.0554304 0.500000 0.354950
-1.83103 4.340565 0.30372 0.9611467 0 0.2760385 0.464286 0.427475
-1.83103 5.09555 0.30372 0.9612179 0 0.2757899 0.464286 0.500000
-1.796365 4.340565 0 0.9984482 0 0.05568862 0.500000 0.427475
-1.796365 5.09555 0 0.9984625 0 0.0554304 0.500000 0.500000
-1.83103 5.8505 0.30372 0.9611467 2.765343e-07 0.2760385 0.464286 0.572525
-1.83103 6.6055 0.30372 0.9612179 7.095251e-07 0.2757899 0.464286 0.645050
-1.796365 5.8505 0 0.9984482 0 0.05568862 0.500000 0.572525
-1.796365 6.6055 0 0.9984625 0 0.0554304 0.500000 0.645050
-4.228825 2.83062 -0.851 -0.7452621 -0.04946001 -0.6649347 0.892857 0.282424
-4.228825 3.585595 -0.851 -0.746367 0 -0.6655346 0.892857 0.354950
-4.391835 2.83062 -0.5924 -0.8743319 -0.04878749 -0.4828701 0.928571 0.282424
-4.391835 3.585595 -0.5924 -0.8755315 0 -0.4831612 0.928571 0.354950
-1.796365 7.36045 0 0.9938374 0 0.110847 0.500000 0.717576
-1.83103 7.36045 0.30372 0.9440875 8.727619e-07 0.329695 0.464286 0.717576
-4.228825 4.340565 -0.851 -0.7461951 0 -0.6657274 0.892857 0.427475
-4.228825 5.09555 -0.851 -0.746367 0 -0.6655346 0.892857 0.500000
-4.391835 4.340565 -0.5924 -0.8754067 0 -0.4833871 0.928571 0.427475
-4.391835 5.09555 -0.5924 -0.8755315 0 -0.4831612 0.928571 0.500000
-4.228825 5.8505 -0.851 -0.7461951 0 -0.6657274 0.892857 0.572525
-4.228825 6.6055 -0.851 -0.746367 -1.282216e-08 -0.6655346 0.892857 0.645050
-4.391835 5.8505 -0.5924 -0.8754067 0 -0.4833871 0.928571 0.572525
-4.391835 6.6055 -0.5924 -0.8755315 0 -0.4831612 0.928571 0.645050
-4.391835 7.36045 -0.5924 -0.8473223 0 -0.5310789 0.928571 0.717576
-4.228825 7.36045 -0.851 -0.7075424 -2.584599e-08 -0.7066709 0.892857 0.717576
-3.435315 0.73781 -0.131765 -0.2257853 -0.9701171 -0.08884701 0.946429 0.026237
-3.50119 0.74669 -0.077485 -0.2581356 -0.9643104 -0.0589189 0.964286 0.034983
-3.68246 0.81127 -0.11886 -0.3063698 -0.9493756 -0.06945071 0.964286 0.052475
-3.46539 0.73781 0 -0.2420288 -0.9701034 -0.01792629 0.982143 0.026237
-3.684865 0.80905 0 -0.3214499 -0.9469261 0.0009907911 1.000000 0.052475
-3.161705 0.688335 0 -0.161134 -0.986247 -0.0367785 0.964286 0.000000
-2.858025 0.73781 0 0.2419724 -0.9701177 -0.01791403 0.517857 0.026237
-2.82222 0.74669 -0.077485 0.2581331 -0.9643111 -0.05891794 0.535714 0.034983
-2.64095 0.81127 -0.11886 0.3061819 -0.9493683 -0.0703745 0.535714 0.052475
-2.8881 0.73781 -0.131765 0.2258352 -0.9701039 -0.08886571 0.553571 0.026237
-2.690355 0.80905 -0.22699 0.2895104 -0.9468837 -0.1399827 0.571429 0.052475
-3.161705 0.688335 0 0.161134 -0.986247 -0.0367785 0.535714 0.000000
-2.436625 0.933955 -0.165495 0.475319 -0.8730387 -0.1089736 0.535714 0.078712
-2.23868 1.104535 -0.210675 0.6306252 -0.7686419 -0.1072449 0.535714 0.104950
-2.491415 0.933955 -0.322795 0.4419428 -0.8712904 -0.2134003 0.571429 0.078712
-2.308425 1.104535 -0.410915 0.5955197 -0.7646383 -0.2463424 0.571429 0.104950
-2.076545 1.312795 -0.24768 0.7648375 -0.6294819 -0.1370265 0.535714 0.131187
-1.955715 1.550085 -0.27526 0.8721869 -0.4661165 -0.1484097 0.535714 0.157424
-2.158545 1.312795 -0.483095 0.7183622 -0.6254248 -0.3046302 0.571429 0.131187
-2.046845 1.550085 -0.53689 0.819756 -0.4614632 -0.3391931 0.571429 0.157424
-1.881675 1.80777 -0.29216 0.9434103 -0.288486 -0.1635628 0.535714 0.183662
-1.84369 2.19742 -0.30083 0.9808276 -0.09953558 -0.1675412 0.535714 0.209899
-1.978395 1.80777 -0.56985 0.8844721 -0.2852726 -0.3692271 0.571429 0.183662
-1.943285 2.19742 -0.58676 0.9192668 -0.09817865 -0.3811948 0.571429 0.209899
-1.83103 2.83062 -0.30372 0.9845297 -0.04945601 -0.1680933 0.535714 0.282424
-1.83103 3.585595 -0.30372 0.9856872 0 -0.1685848 0.535714 0.354950
-1.93158 2.83062 -0.5924 0.9226598 -0.04878204 -0.3825171 0.571429 0.282424
-1.93158 3.585595 -0.5924 0.9236324 0 -0.3832796 0.571429 0.354950
-1.83103 4.340565 -0.30372 0.9857308 0 -0.1683295 0.535714 0.427475
-1.83103 5.09555 -0.30372 0.9856872 0 -0.1685848 0.535714 0.500000
-1.93158 4.340565 -0.5924 0.9237311 0 -0.3830415 0.571429 0.427475
-1.93158 5.09555 -0.5924 0.9236324 0 -0.3832796 0.571429 0.500000
-1.83103 5.8505 -0.30372 0.9857308 0 -0.1683293 0.535714 0.572525
-1.83103 6.6055 -0.30372 0.9856872 0 -0.1685848 0.535714 0.645050
-1.93158 5.8505 -0.5924 0.9237311 0 -0.3830415 0.571429 0.572525
-1.93158 6.6055 -0.5924 0.9236324 0 -0.3832796 0.571429 0.645050
-3.886785 0.933955 -0.165495 -0.4755284 -0.873039 -0.1080534 0.964286 0.078712
-4.08473 1.104535 -0.210675 -0.6146551 -0.768672 -0.177038 0.964286 0.104950
-3.90567 0.933955 0 -0.4903404 -0.870754 -0.03679436 1.000000 0.078712
-4.108775 1.104535 0 -0.641941 -0.7632461 -0.07326061 1.000000 0.104950
-1.93158 7.36045 -0.5924 0.9435076 0 -0.3313509 0.571429 0.717576
-1.83103 7.36045 -0.30372 0.9936431 0 -0.1125761 0.535714 0.717576
-4.246865 1.312795 -0.24768 -0.7485456 -0.6294838 -0.2083973 0.964286 0.131187
-4.367695 1.550085 -0.27526 -0.8501523 -0.4661734 -0.2447929 0.964286 0.157424
-4.27513 1.312795 0 -0.776728 -0.6235672 -0.08864346 1.000000 0.131187
-4.39911 1.550085 0 -0.8822159 -0.4599545 -0.1006826 1.000000 0.157424
-4.44174 1.80777 -0.29216 -0.9209474 -0.2884938 -0.2619677 0.964286 0.183662
-4.479725 2.19742 -0.30083 -0.9563215 -0.09961145 -0.2748213 0.964286 0.209899
-4.47508 1.80777 0 -0.9525748 -0.284225 -0.1087081 1.000000 0.183662
-4.514055 2.19742 0 -0.9887692 -0.09799892 -0.1128349 1.000000 0.209899
-4.492385 2.83062 -0.30372 -0.9599633 -0.04946006 -0.2757246 0.964286 0.282424
-4.492385 3.585595 -0.30372 -0.9611478 0 -0.2760341 0.964286 0.354950
-4.527045 2.83062 0 -0.9923625 -0.04890902 -0.1132455 1.000000 0.282424
-4.527045 3.585595 0 -0.9935516 0 -0.1133817 1.000000 0.354950
-4.492385 4.340565 -0.30372 -0.961148 0 -0.2760338 0.964286 0.427475
-4.492385 5.09555 -0.30372 -0.9611478 0 -0.2760341 0.964286 0.500000
-2.8881 0.73781 -0.131765 0.2102378 -0.9701178 -0.121126 0.589286 0.026237
-2.88946 0.74669 -0.21711 0.2070067 -0.9643111 -0.1650827 0.607143 0.034983
-2.74409 0.81127 -0.333035 0.2453123 -0.9493765 -0.1962298 0.607143 0.052475
-2.972365 0.73781 -0.23743 0.1649133 -0.9701036 -0.1780525 0.625000 0.026237
-3.161705 0.688335 0 0.12922 -0.9862469 -0.103049 0.607143 0.000000
-2.580235 0.933955 -0.463705 0.3530487 -0.875958 -0.328716 0.607143 0.078712
-2.421495 1.104535 -0.590295 0.4692513 -0.7766987 -0.4201695 0.607143 0.104950
-2.291475 1.312795 -0.693985 0.5685405 -0.6388566 -0.5182894 0.607143 0.131187
-2.194575 1.550085 -0.77126 0.6554202 -0.4756009 -0.5867096 0.607143 0.157424
-2.1352 1.80777 -0.81861 0.7098791 -0.2952533 -0.6394506 0.607143 0.183662
-2.10474 2.19742 -0.842905 0.7415118 -0.1021526 -0.6631178 0.607143 0.209899
-2.094585 2.83062 -0.851 0.7445519 -0.05072979 -0.6656343 0.607143 0.282424
-2.094585 3.585595 -0.851 0.7460968 0 -0.6658375 0.607143 0.354950
-2.094585 4.340565 -0.851 0.7459274 0 -0.6660273 0.607143 0.427475
-2.094585 5.09555 -0.851 0.7460968 0 -0.6658375 0.607143 0.500000
-2.094585 5.8505 -0.851 0.7459274 0 -0.6660273 0.607143 0.572525
-2.094585 6.6055 -0.851 0.7460968 0 -0.6658375 0.607143 0.645050
-4.527045 4.340565 0 -0.9935516 0 -0.1133816 1.000000 0.427475
-4.527045 5.09555 0 -0.9935516 0 -0.1133817 1.000000 0.500000
-2.094585 7.36045 -0.851 0.7830856 0 -0.6219139 0.607143 0.717576
-4.492385 5.8505 -0.30372 -0.961148 0 -0.2760338 0.964286 0.572525
-4.492385 6.6055 -0.30372 -0.9611478 0 -0.2760341 0.964286 0.645050
-4.527045 5.8505 0 -0.9935516 0 -0.1133816 1.000000 0.572525
-4.527045 6.6055 0 -0.9935516 0 -0.1133817 1.000000 0.645050
-4.527045 7.36045 0 -0.9935516 0 -0.1133817 1.000000 0.717576
-4.492385 7.36045 -0.30372 -0.9440872 0 -0.3296957 0.964286 0.717576
3 0 1 2 
3 0 2 3 
3 2 1 4 
3 2 4 5 
3 0 6 4 
3 0 4 1 
3 7 8 9 
3 7 9 10 
3 9 8 11 
3 9 11 12 
3 11 8 2 
3 11 2 5 
3 2 8 7 
3 2 7 3 
3 13 14 15 
3 13 15 16 
3 15 14 17 
3 15 17 18 
3 17 14 9 
3 17 9 12 
3 9 14 13 
3 9 13 10 
3 19 20 21 
3 19 21 22 
3 21 20 23 
3 21 23 24 
3 23 20 15 
3 23 15 18 
3 15 20 19 
3 15 19 16 
3 25 26 27 
3 25 27 28 
3 27 26 29 
3 27 29 30 
3 29 26 21 
3 29 21 24 
3 21 26 25 
3 21 25 22 
3 31 32 33 
3 31 33 34 
3 33 32 35 
3 33 35 36 
3 35 32 27 
3 35 27 30 
3 27 32 31 
3 27 31 28 
3 37 38 39 
3 37 39 40 
3 39 38 41 
3 39 41 42 
3 41 38 33 
3 41 33 36 
3 33 38 37 
3 33 37 34 
3 43 44 45 
3 43 45 46 
3 45 44 47 
3 45 47 48 
3 49 50 39 
3 49 39 42 
3 39 50 51 
3 39 51 40 
3 43 52 47 
3 43 47 44 
3 53 54 55 
3 53 55 56 
3 55 54 57 
3 55 57 58 
3 57 54 45 
3 57 45 48 
3 45 54 53 
3 45 53 46 
3 59 60 61 
3 59 61 62 
3 61 60 63 
3 61 63 64 
3 63 60 55 
3 63 55 58 
3 55 60 59 
3 55 59 56 
3 65 66 67 
3 65 67 68 
3 67 66 69 
3 67 69 70 
3 69 66 61 
3 69 61 64 
3 61 66 65 
3 61 65 62 
3 71 72 73 
3 71 73 74 
3 73 72 75 
3 73 75 76 
3 77 78 79 
3 77 79 5 
3 79 78 80 
3 79 80 81 
3 77 82 80 
3 77 80 78 
3 11 83 84 
3 11 84 12 
3 84 83 85 
3 84 85 86 
3 85 83 79 
3 85 79 81 
3 79 83 11 
3 79 11 5 
3 17 87 88 
3 17 88 18 
3 88 87 89 
3 88 89 90 
3 89 87 84 
3 89 84 86 
3 84 87 17 
3 84 17 12 
3 23 91 92 
3 23 92 24 
3 92 91 93 
3 92 93 94 
3 93 91 88 
3 93 88 90 
3 88 91 23 
3 88 23 18 
3 29 95 96 
3 29 96 30 
3 96 95 97 
3 96 97 98 
3 97 95 92 
3 97 92 94 
3 92 95 29 
3 92 29 24 
3 35 99 100 
3 35 100 36 
3 100 99 101 
3 100 101 102 
3 101 99 96 
3 101 96 98 
3 96 99 35 
3 96 35 30 
3 41 103 104 
3 41 104 42 
3 104 103 105 
3 104 105 106 
3 105 103 100 
3 105 100 102 
3 100 103 41 
3 100 41 36 
3 75 72 67 
3 75 67 70 
3 67 72 71 
3 67 71 68 
3 107 108 104 
3 107 104 106 
3 104 108 49 
3 104 49 42 
3 109 110 111 
3 109 111 112 
3 111 110 113 
3 111 113 114 
3 113 110 73 
3 113 73 76 
3 73 110 109 
3 73 109 74 
3 115 116 117 
3 115 117 118 
3 117 116 119 
3 117 119 120 
3 119 116 111 
3 119 111 114 
3 111 116 115 
3 111 115 112 
3 121 122 117 
3 121 117 120 
3 117 122 123 
3 117 123 118 
3 124 125 126 
3 124 126 48 
3 126 125 127 
3 126 127 128 
3 124 129 127 
3 124 127 125 
3 57 130 131 
3 57 131 58 
3 131 130 132 
3 131 132 133 
3 134 135 136 
3 134 136 81 
3 136 135 137 
3 136 137 138 
3 134 139 137 
3 134 137 135 
3 85 140 141 
3 85 141 86 
3 141 140 142 
3 141 142 143 
3 142 140 136 
3 142 136 138 
3 136 140 85 
3 136 85 81 
3 89 144 145 
3 89 145 90 
3 145 144 146 
3 145 146 147 
3 146 144 141 
3 146 141 143 
3 141 144 89 
3 141 89 86 
3 93 148 149 
3 93 149 94 
3 149 148 150 
3 149 150 151 
3 150 148 145 
3 150 145 147 
3 145 148 93 
3 145 93 90 
3 97 152 153 
3 97 153 98 
3 153 152 154 
3 153 154 155 
3 154 152 149 
3 154 149 151 
3 149 152 97 
3 149 97 94 
3 101 156 157 
3 101 157 102 
3 157 156 158 
3 157 158 159 
3 158 156 153 
3 158 153 155 
3 153 156 101 
3 153 101 98 
3 105 160 161 
3 105 161 106 
3 161 160 162 
3 161 162 163 
3 162 160 157 
3 162 157 159 
3 157 160 105 
3 157 105 102 
3 132 130 126 
3 132 126 128 
3 126 130 57 
3 126 57 48 
3 164 165 161 
3 164 161 163 
3 161 165 107 
3 161 107 106 
3 63 166 167 
3 63 167 64 
3 167 166 168 
3 167 168 169 
3 168 166 131 
3 168 131 133 
3 131 166 63 
3 131 63 58 
3 69 170 171 
3 69 171 70 
3 171 170 172 
3 171 172 173 
3 172 170 167 
3 172 167 169 
3 167 170 69 
3 167 69 64 
3 75 174 175 
3 75 175 76 
3 175 174 176 
3 175 176 177 
3 176 174 171 
3 176 171 173 
3 171 174 75 
3 171 75 70 
3 113 178 179 
3 113 179 114 
3 179 178 180 
3 179 180 181 
3 180 178 175 
3 180 175 177 
3 182 183 184 
3 182 184 138 
3 184 183 185 
3 184 185 186 
3 182 187 185 
3 182 185 183 
3 142 188 189 
3 142 189 143 
3 189 188 190 
3 189 190 191 
3 190 188 184 
3 190 184 186 
3 184 188 142 
3 184 142 138 
3 146 192 193 
3 146 193 147 
3 193 192 194 
3 193 194 195 
3 194 192 189 
3 194 189 191 
3 189 192 146 
3 189 146 143 
3 150 196 197 
3 150 197 151 
3 197 196 198 
3 197 198 199 
3 198 196 193 
3 198 193 195 
3 193 196 150 
3 193 150 147 
3 154 200 201 
3 154 201 155 
3 201 200 202 
3 201 202 203 
3 202 200 197 
3 202 197 199 
3 197 200 154 
3 197 154 151 
3 158 204 205 
3 158 205 159 
3 205 204 206 
3 205 206 207 
3 206 204 201 
3 206 201 203 
3 201 204 158 
3 201 158 155 
3 162 208 209 
3 162 209 163 
3 209 208 210 
3 209 210 211 
3 210 208 205 
3 210 205 207 
3 205 208 162 
3 205 162 159 
3 175 178 113 
3 175 113 76 
3 119 212 213 
3 119 213 120 
3 214 215 209 
3 214 209 211 
3 209 215 164 
3 209 164 163 
3 213 212 216 
3 213 216 217 
3 216 212 179 
3 216 179 181 
3 179 212 119 
3 179 119 114 
3 218 219 213 
3 218 213 217 
3 213 219 121 
3 213 121 120 
3 220 221 222 
3 220 222 128 
3 222 221 223 
3 222 223 224 
3 220 225 223 
3 220 223 221 
3 132 226 227 
3 132 227 133 
3 227 226 228 
3 227 228 229 
3 228 226 222 
3 228 222 224 
3 222 226 132 
3 222 132 128 
3 168 230 231 
3 168 231 169 
3 231 230 232 
3 231 232 233 
3 232 230 227 
3 232 227 229 
3 234 235 236 
3 234 236 186 
3 236 235 237 
3 236 237 238 
3 234 239 237 
3 234 237 235 
3 190 240 241 
3 190 241 191 
3 241 240 242 
3 241 242 243 
3 242 240 236 
3 242 236 238 
3 236 240 190 
3 236 190 186 
3 194 244 245 
3 194 245 195 
3 245 244 246 
3 245 246 247 
3 246 244 241 
3 246 241 243 
3 241 244 194 
3 241 194 191 
3 198 248 249 
3 198 249 199 
3 249 248 250 
3 249 250 251 
3 250 248 245 
3 250 245 247 
3 245 248 198 
3 245 198 195 
3 202 252 253 
3 202 253 203 
3 253 252 254 
3 253 254 255 
3 254 252 249 
3 254 249 251 
3 249 252 202 
3 249 202 199 
3 206 256 257 
3 206 257 207 
3 257 256 258 
3 257 258 259 
3 258 256 253 
3 258 253 255 
3 253 256 206 
3 253 206 203 
3 210 260 261 
3 210 261 211 
3 261 260 262 
3 261 262 263 
3 262 260 257 
3 262 257 259 
3 257 260 210 
3 257 210 207 
3 227 230 168 
3 227 168 133 
3 172 264 265 
3 172 265 173 
3 266 267 261 
3 266 261 263 
3 261 267 214 
3 261 214 211 
3 265 264 268 
3 265 268 269 
3 268 264 231 
3 268 231 233 
3 231 264 172 
3 231 172 169 
3 176 270 271 
3 176 271 177 
3 271 270 272 
3 271 272 273 
3 272 270 265 
3 272 265 269 
3 265 270 176 
3 265 176 173 
3 180 274 275 
3 180 275 181 
3 275 274 276 
3 275 276 277 
3 276 274 271 
3 276 271 273 
3 271 274 180 
3 271 180 177 
3 216 278 279 
3 216 279 217 
3 279 278 280 
3 279 280 281 
3 280 278 275 
3 280 275 277 
3 275 278 216 
3 275 216 181 
3 282 283 284 
3 282 284 238 
3 284 283 285 
3 284 285 286 
3 282 287 285 
3 282 285 283 
3 242 288 289 
3 242 289 243 
3 289 288 290 
3 289 290 291 
3 290 288 284 
3 290 284 286 
3 284 288 242 
3 284 242 238 
3 246 292 293 
3 246 293 247 
3 293 292 294 
3 293 294 295 
3 294 292 289 
3 294 289 291 
3 289 292 246 
3 289 246 243 
3 250 296 297 
3 250 297 251 
3 297 296 298 
3 297 298 299 
3 298 296 293 
3 298 293 295 
3 293 296 250 
3 293 250 247 
3 254 300 301 
3 254 301 255 
3 301 300 302 
3 301 302 303 
3 302 300 297 
3 302 297 299 
3 297 300 254 
3 297 254 251 
3 258 304 305 
3 258 305 259 
3 305 304 306 
3 305 306 307 
3 306 304 301 
3 306 301 303 
3 301 304 258 
3 301 258 255 
3 262 308 309 
3 262 309 263 
3 309 308 310 
3 309 310 311 
3 310 308 305 
3 310 305 307 
3 305 308 262 
3 305 262 259 
3 312 313 279 
3 312 279 281 
3 279 313 218 
3 279 218 217 
3 314 315 309 
3 314 309 311 
3 309 315 266 
3 309 266 263 
3 316 317 318 
3 316 318 224 
3 318 317 319 
3 318 319 320 
3 316 321 319 
3 316 319 317 
3 228 322 323 
3 228 323 229 
3 323 322 324 
3 323 324 325 
3 324 322 318 
3 324 318 320 
3 318 322 228 
3 318 228 224 
3 232 326 327 
3 232 327 233 
3 327 326 328 
3 327 328 329 
3 328 326 323 
3 328 323 325 
3 323 326 232 
3 323 232 229 
3 268 330 331 
3 268 331 269 
3 331 330 332 
3 331 332 333 
3 332 330 327 
3 332 327 329 
3 327 330 268 
3 327 268 233 
3 334 335 336 
3 334 336 286 
3 336 335 337 
3 336 337 338 
3 334 339 337 
3 334 337 335 
3 290 340 341 
3 290 341 291 
3 341 340 342 
3 341 342 343 
3 342 340 336 
3 342 336 338 
3 336 340 290 
3 336 290 286 
3 294 344 345 
3 294 345 295 
3 345 344 346 
3 345 346 347 
3 346 344 341 
3 346 341 343 
3 341 344 294 
3 341 294 291 
3 298 348 349 
3 298 349 299 
3 349 348 350 
3 349 350 351 
3 350 348 345 
3 350 345 347 
3 345 348 298 
3 345 298 295 
3 302 352 353 
3 302 353 303 
3 353 352 354 
3 353 354 355 
3 354 352 349 
3 354 349 351 
3 349 352 302 
3 349 302 299 
3 306 356 357 
3 306 357 307 
3 357 356 358 
3 357 358 359 
3 358 356 353 
3 358 353 355 
3 353 356 306 
3 353 306 303 
3 310 360 361 
3 310 361 311 
3 361 360 362 
3 361 362 363 
3 362 360 357 
3 362 357 359 
3 357 360 310 
3 357 310 307 
3 272 364 365 
3 272 365 273 
3 365 364 366 
3 365 366 367 
3 368 369 361 
3 368 361 363 
3 361 369 314 
3 361 314 311 
3 366 364 331 
3 366 331 333 
3 331 364 272 
3 331 272 269 
3 276 370 371 
3 276 371 277 
3 371 370 372 
3 371 372 373 
3 372 370 365 
3 372 365 367 
3 365 370 276 
3 365 276 273 
3 280 374 375 
3 280 375 281 
3 375 374 376 
3 375 376 377 
3 376 374 371 
3 376 371 373 
3 371 374 280 
3 371 280 277 
3 378 379 375 
3 378 375 377 
3 375 379 312 
3 375 312 281 
3 380 381 382 
3 380 382 320 
3 382 381 383 
3 382 383 384 
3 380 385 383 
3 380 383 381 
3 386 387 388 
3 386 388 338 
3 388 387 389 
3 388 389 390 
3 386 391 389 
3 386 389 387 
3 342 392 393 
3 342 393 343 
3 393 392 394 
3 393 394 395 
3 394 392 388 
3 394 388 390 
3 388 392 342 
3 388 342 338 
3 346 396 397 
3 346 397 347 
3 397 396 398 
3 397 398 399 
3 398 396 393 
3 398 393 395 
3 393 396 346 
3 393 346 343 
3 350 400 401 
3 350 401 351 
3 401 400 402 
3 401 402 403 
3 402 400 397 
3 402 397 399 
3 397 400 350 
3 397 350 347 
3 354 404 405 
3 354 405 355 
3 405 404 406 
3 405 406 407 
3 406 404 401 
3 406 401 403 
3 401 404 354 
3 401 354 351 
3 358 408 409 
3 358 409 359 
3 409 408 410 
3 409 410 411 
3 410 408 405 
3 410 405 407 
3 405 408 358 
3 405 358 355 
3 362 412 413 
3 362 413 363 
3 413 412 414 
3 413 414 415 
3 414 412 409 
3 414 409 411 
3 409 412 362 
3 409 362 359 
3 324 416 417 
3 324 417 325 
3 417 416 418 
3 417 418 419 
3 420 421 413 
3 420 413 415 
3 413 421 368 
3 413 368 363 
3 418 416 382 
3 418 382 384 
3 382 416 324 
3 382 324 320 
3 328 422 423 
3 328 423 329 
3 423 422 424 
3 423 424 425 
3 424 422 417 
3 424 417 419 
3 417 422 328 
3 417 328 325 
3 332 426 427 
3 332 427 333 
3 427 426 428 
3 427 428 429 
3 428 426 423 
3 428 423 425 
3 423 426 332 
3 423 332 329 
3 366 430 431 
3 366 431 367 
3 431 430 432 
3 431 432 433 
3 432 430 427 
3 432 427 429 
3 427 430 366 
3 427 366 333 
3 372 434 435 
3 372 435 373 
3 436 437 438 
3 436 438 390 
3 438 437 439 
3 438 439 46 
3 436 440 439 
3 436 439 437 
3 394 441 442 
3 394 442 395 
3 442 441 53 
3 442 53 56 
3 53 441 438 
3 53 438 46 
3 438 441 394 
3 438 394 390 
3 398 443 444 
3 398 444 399 
3 444 443 59 
3 444 59 62 
3 59 443 442 
3 59 442 56 
3 442 443 398 
3 442 398 395 
3 402 445 446 
3 402 446 403 
3 446 445 65 
3 446 65 68 
3 65 445 444 
3 65 444 62 
3 444 445 402 
3 444 402 399 
3 406 447 448 
3 406 448 407 
3 448 447 71 
3 448 71 74 
3 71 447 446 
3 71 446 68 
3 446 447 406 
3 446 406 403 
3 410 449 450 
3 410 450 411 
3 450 449 109 
3 450 109 112 
3 109 449 448 
3 109 448 74 
3 448 449 410 
3 448 410 407 
3 414 451 452 
3 414 452 415 
3 452 451 115 
3 452 115 118 
3 115 451 450 
3 115 450 112 
3 450 451 414 
3 450 414 411 
3 435 434 453 
3 435 453 454 
3 453 434 431 
3 453 431 433 
3 123 455 452 
3 123 452 118 
3 452 455 420 
3 452 420 415 
3 431 434 372 
3 431 372 367 
3 376 456 457 
3 376 457 377 
3 457 456 458 
3 457 458 459 
3 458 456 435 
3 458 435 454 
3 435 456 376 
3 435 376 373 
3 460 461 457 
3 460 457 459 
3 457 461 378 
3 457 378 377 
