ply
format ascii 1.0
comment VCGLIB generated
element vertex 26
property float x
property float y
property float z
property float nx
property float ny
property float nz
property float texture_u
property float texture_v
element face 12
property list uchar int vertex_indices
end_header
0.75 -1.125 -0.075 0 0 -1 1.000000 -1.000000
-0.75 1.125 -0.075 0 0 -1 -1.000000 1.000000
0.75 1.125 -0.075 0 0 -1 1.000000 1.000000
-0.75 1.125 0.075 0 0 1 -1.000000 1.000000
0.7499992 -1.125001 0.075 0 0 1 0.999999 -1.000001
0.75 1.124999 0.075 0 0 1 1.000000 0.999999
0.75 1.124999 0.075 1 0 0 1.000000 0.999999
0.75 -1.125 -0.075 1 0 0 1.000000 -1.000000
0.75 1.125 -0.075 1 0 0 1.000000 1.000000
0.7499992 -1.125001 0.075 -1.589458e-07 -1 -1.589457e-08 0.999999 -1.000001
-0.75 -1.125 -0.075 -1.589457e-07 -1 -1.589458e-08 -1.000000 -1.000000
0.75 -1.125 -0.075 0 -1 -3.178915e-08 1.000000 -1.000000
-0.75 -1.125 -0.075 -1 0 0 -1.000000 -1.000000
-0.75 1.125 0.075 -1 0 0 -1.000000 1.000000
-0.75 1.125 -0.075 -1 0 0 -1.000000 1.000000
0.75 1.125 -0.075 1.688798e-07 1 1.688798e-08 1.000000 1.000000
-0.75 1.125 0.075 1.688798e-07 1 1.688798e-08 -1.000000 1.000000
0.75 1.124999 0.075 3.377597e-07 1 3.377597e-08 1.000000 0.999999
-0.75 -1.125 -0.075 0 0 -1 -1.000000 -1.000000
-0.75 -1.125 0.075 0 0 1 -1.000000 -1.000000
0.75 1.124999 0.075 1 -7.599592e-07 5.066393e-08 1.000000 0.999999
0.7499992 -1.125001 0.075 1 -7.599592e-07 5.066393e-08 0.999999 -1.000001
0.75 -1.125 -0.075 1 -7.599592e-07 5.066393e-08 1.000000 -1.000000
-0.75 -1.125 0.075 -3.178916e-07 -1 0 -1.000000 -1.000000
-0.75 -1.125 0.075 -1 0 0 -1.000000 -1.000000
-0.75 1.125 -0.075 0 1 0 -1.000000 1.000000
3 0 1 2 
3 3 4 5 
3 6 7 8 
3 9 10 11 
3 12 13 14 
3 15 16 17 
3 0 18 1 
3 3 19 4 
3 20 21 22 
3 9 23 10 
3 12 24 13 
3 15 25 16 
