ply
format ascii 1.0
comment VCGLIB generated
element vertex 26
property float x
property float y
property float z
property float nx
property float ny
property float nz
property float texture_u
property float texture_v
element face 12
property list uchar int vertex_indices
end_header
10 -10 -10 0 0 -1 1.000000 -1.000000
-10 10 -10 0 0 -1 -1.000000 1.000000
10 10 -10 0 0 -1 1.000000 1.000000
-10 10 10 0 0 1 -1.000000 1.000000
9.99999 -10.00001 10 0 0 1 0.999999 -1.000001
10 9.99999 10 0 0 1 1.000000 0.999999
10 9.99999 10 1 0 0 1.000000 0.999999
10 -10 -10 1 0 0 1.000000 -1.000000
10 10 -10 1 0 0 1.000000 1.000000
9.99999 -10.00001 10 -2.384187e-07 -1 -2.384186e-07 0.999999 -1.000001
-10 -10 -10 -2.384186e-07 -1 -2.384187e-07 -1.000000 -1.000000
10 -10 -10 0 -1 -4.768372e-07 1.000000 -1.000000
-10 -10 -10 -1 0 0 -1.000000 -1.000000
-10 10 10 -1 0 0 -1.000000 1.000000
-10 10 -10 -1 0 0 -1.000000 1.000000
10 10 -10 2.533197e-07 1 2.533197e-07 1.000000 1.000000
-10 10 10 2.533197e-07 1 2.533197e-07 -1.000000 1.000000
10 9.99999 10 5.066395e-07 1 5.066395e-07 1.000000 0.999999
-10 -10 -10 0 0 -1 -1.000000 -1.000000
-10 -10 10 0 0 1 -1.000000 -1.000000
10 9.99999 10 1 -5.066395e-07 5.066393e-07 1.000000 0.999999
9.99999 -10.00001 10 1 -5.066395e-07 5.066393e-07 0.999999 -1.000001
10 -10 -10 1 -5.066395e-07 5.066393e-07 1.000000 -1.000000
-10 -10 10 -4.768374e-07 -1 0 -1.000000 -1.000000
-10 -10 10 -1 0 0 -1.000000 -1.000000
-10 10 -10 0 1 0 -1.000000 1.000000
3 0 1 2 
3 3 4 5 
3 6 7 8 
3 9 10 11 
3 12 13 14 
3 15 16 17 
3 0 18 1 
3 3 19 4 
3 20 21 22 
3 9 23 10 
3 12 24 13 
3 15 25 16 
