ply
format ascii 1.0
comment VCGLIB generated
element vertex 26
property float x
property float y
property float z
property float nx
property float ny
property float nz
property float texture_u
property float texture_v
element face 12
property list uchar int vertex_indices
end_header
150 -200 -0.05 0 0 -1 1.000000 -1.000000
-150 200 -0.05 0 0 -1 -1.000000 1.000000
150 200 -0.05 0 0 -1 1.000000 1.000000
-150 200 0.05 0 0 1 -1.000000 1.000000
149.9998 -200.0002 0.05 0 0 1 0.999999 -1.000001
150 199.9998 0.05 0 0 1 1.000000 0.999999
150 199.9998 0.05 1 0 0 1.000000 0.999999
150 -200 -0.05 1 0 0 1.000000 -1.000000
150 200 -0.05 1 0 0 1.000000 1.000000
149.9998 -200.0002 0.05 -1.788139e-07 -1 -5.960465e-11 0.999999 -1.000001
-150 -200 -0.05 -1.788139e-07 -1 -5.960465e-11 -1.000000 -1.000000
150 -200 -0.05 0 -1 -1.192093e-10 1.000000 -1.000000
-150 -200 -0.05 -1 0 0 -1.000000 -1.000000
-150 200 0.05 -1 0 0 -1.000000 1.000000
-150 200 -0.05 -1 0 0 -1.000000 1.000000
150 200 -0.05 1.899899e-07 1 6.332997e-11 1.000000 1.000000
-150 200 0.05 1.899899e-07 1 6.332997e-11 -1.000000 1.000000
150 199.9998 0.05 3.799797e-07 1 1.266599e-10 1.000000 0.999999
-150 -200 -0.05 0 0 -1 -1.000000 -1.000000
-150 -200 0.05 0 0 1 -1.000000 -1.000000
150 199.9998 0.05 1 -6.755193e-07 1.688798e-10 1.000000 0.999999
149.9998 -200.0002 0.05 1 -6.755193e-07 1.688798e-10 0.999999 -1.000001
150 -200 -0.05 1 -6.755193e-07 1.688798e-10 1.000000 -1.000000
-150 -200 0.05 -3.57628e-07 -1 0 -1.000000 -1.000000
-150 -200 0.05 -1 0 0 -1.000000 -1.000000
-150 200 -0.05 0 1 0 -1.000000 1.000000
3 0 1 2 
3 3 4 5 
3 6 7 8 
3 9 10 11 
3 12 13 14 
3 15 16 17 
3 0 18 1 
3 3 19 4 
3 20 21 22 
3 9 23 10 
3 12 24 13 
3 15 25 16 
