ply
format ascii 1.0
comment VCGLIB generated
element vertex 26
property float x
property float y
property float z
property float nx
property float ny
property float nz
property float texture_u
property float texture_v
element face 12
property list uchar int vertex_indices
end_header
5 -2.5 -0.5 0 0 -1 1.000000 -1.000000
-5 2.5 -0.5 0 0 -1 -1.000000 1.000000
5 2.5 -0.5 0 0 -1 1.000000 1.000000
-5 2.5 0.5 0 0 1 -1.000000 1.000000
4.999995 -2.500002 0.5 0 0 1 0.999999 -1.000001
5 2.499998 0.5 0 0 1 1.000000 0.999999
5 2.499998 0.5 1 0 0 1.000000 0.999999
5 -2.5 -0.5 1 0 0 1.000000 -1.000000
5 2.5 -0.5 1 0 0 1.000000 1.000000
4.999995 -2.500002 0.5 -4.768374e-07 -1 -4.768372e-08 0.999999 -1.000001
-5 -2.5 -0.5 -4.768372e-07 -1 -4.768376e-08 -1.000000 -1.000000
5 -2.5 -0.5 0 -1 -9.536744e-08 1.000000 -1.000000
-5 -2.5 -0.5 -1 0 0 -1.000000 -1.000000
-5 2.5 0.5 -1 0 0 -1.000000 1.000000
-5 2.5 -0.5 -1 0 0 -1.000000 1.000000
5 2.5 -0.5 5.066394e-07 1 5.066396e-08 1.000000 1.000000
-5 2.5 0.5 5.066394e-07 1 5.066396e-08 -1.000000 1.000000
5 2.499998 0.5 1.013279e-06 1 1.013279e-07 1.000000 0.999999
-5 -2.5 -0.5 0 0 -1 -1.000000 -1.000000
-5 -2.5 0.5 0 0 1 -1.000000 -1.000000
5 2.499998 0.5 1 -2.533197e-07 5.066392e-08 1.000000 0.999999
4.999995 -2.500002 0.5 1 -2.533197e-07 5.066392e-08 0.999999 -1.000001
5 -2.5 -0.5 1 -2.533197e-07 5.066392e-08 1.000000 -1.000000
-5 -2.5 0.5 -9.536748e-07 -1 0 -1.000000 -1.000000
-5 -2.5 0.5 -1 0 0 -1.000000 -1.000000
-5 2.5 -0.5 0 1 0 -1.000000 1.000000
3 0 1 2 
3 3 4 5 
3 6 7 8 
3 9 10 11 
3 12 13 14 
3 15 16 17 
3 0 18 1 
3 3 19 4 
3 20 21 22 
3 9 23 10 
3 12 24 13 
3 15 25 16 
