ply
format ascii 1.0
comment VCGLIB generated
element vertex 26
property float x
property float y
property float z
property float nx
property float ny
property float nz
property float texture_u
property float texture_v
element face 12
property list uchar int vertex_indices
end_header
-49 90 -50 0 0 -0.9999999 1.000000 -1.000000
-51 -10 -50 0 0 -0.9999999 -1.000000 1.000000
-51 90 -50 0 0 -0.9999999 1.000000 1.000000
-51 -10 50 0 0 0.9999999 -1.000000 1.000000
-49 89.99995 50 0 0 0.9999999 0.999999 -1.000001
-51 90 50 0 0 0.9999999 1.000000 0.999999
-51 90 50 -4.371139e-08 1 0 1.000000 0.999999
-49 90 -50 -4.371139e-08 1 0 1.000000 -1.000000
-51 90 -50 -4.371139e-08 1 0 1.000000 1.000000
-49 89.99995 50 1 -1.187722e-05 -1.192093e-05 0.999999 -1.000001
-49 -10 -50 1 -1.187722e-05 -1.192093e-05 -1.000000 -1.000000
-49 90 -50 1 4.371139e-08 -2.384186e-05 1.000000 -1.000000
-49 -10 -50 4.371139e-08 -1 0 -1.000000 -1.000000
-51 -10 50 4.371139e-08 -1 0 -1.000000 1.000000
-51 -10 -50 4.371139e-08 -1 0 -1.000000 1.000000
-51 90 -50 -1 1.262228e-05 1.266599e-05 1.000000 1.000000
-51 -10 50 -1 1.262228e-05 1.266599e-05 -1.000000 1.000000
-51 90 50 -1 2.528826e-05 2.533197e-05 1.000000 0.999999
-49 -10 -50 0 0 -0.9999999 -1.000000 -1.000000
-49 -10 50 0 0 0.9999999 -1.000000 -1.000000
-51 90 50 -3.35786e-08 1 5.066393e-07 1.000000 0.999999
-49 89.99995 50 -3.35786e-08 1 5.066393e-07 0.999999 -1.000001
-49 90 -50 -3.35786e-08 1 5.066393e-07 1.000000 -1.000000
-49 -10 50 1 -2.379816e-05 0 -1.000000 -1.000000
-49 -10 50 4.371139e-08 -1 0 -1.000000 -1.000000
-51 -10 -50 -1 -4.371139e-08 0 -1.000000 1.000000
3 0 1 2 
3 3 4 5 
3 6 7 8 
3 9 10 11 
3 12 13 14 
3 15 16 17 
3 0 18 1 
3 3 19 4 
3 20 21 22 
3 9 23 10 
3 12 24 13 
3 15 25 16 
