ply
format ascii 1.0
comment VCGLIB generated
element vertex 26
property float x
property float y
property float z
property float nx
property float ny
property float nz
property float texture_u
property float texture_v
element face 12
property list uchar int vertex_indices
end_header
50 90 -51 0 1 4.371139e-08 1.000000 -1.000000
-50 90 -49 0 1 4.371139e-08 -1.000000 1.000000
50 90 -49 0 1 4.371139e-08 1.000000 1.000000
-50 -10 -49 0 -1 -4.371139e-08 -1.000000 1.000000
49.99995 -10 -51 0 -1 -4.371139e-08 0.999999 -1.000001
50 -10 -49 0 -1 -4.371139e-08 1.000000 0.999999
50 -10 -49 0.9999999 0 0 1.000000 0.999999
50 90 -51 0.9999999 0 0 1.000000 -1.000000
50 90 -49 0.9999999 0 0 1.000000 1.000000
49.99995 -10 -51 -1.192093e-05 1.196464e-05 -1 0.999999 -1.000001
-50 90 -51 -1.192093e-05 1.196464e-05 -1 -1.000000 -1.000000
50 90 -51 0 2.388557e-05 -1 1.000000 -1.000000
-50 90 -51 -0.9999999 0 0 -1.000000 -1.000000
-50 -10 -49 -0.9999999 0 0 -1.000000 1.000000
-50 90 -49 -0.9999999 0 0 -1.000000 1.000000
50 90 -49 1.266599e-05 -1.27097e-05 1 1.000000 1.000000
-50 -10 -49 1.266599e-05 -1.27097e-05 1 -1.000000 1.000000
50 -10 -49 2.533197e-05 -2.537568e-05 1 1.000000 0.999999
-50 90 -51 0 1 4.371139e-08 -1.000000 -1.000000
-50 -10 -51 0 -1 -4.371139e-08 -1.000000 -1.000000
50 -10 -49 0.9999999 -5.066393e-07 -1.013281e-08 1.000000 0.999999
49.99995 -10 -51 0.9999999 -5.066393e-07 -1.013281e-08 0.999999 -1.000001
50 90 -51 0.9999999 -5.066393e-07 -1.013281e-08 1.000000 -1.000000
-50 -10 -51 -2.384187e-05 4.371139e-08 -1 -1.000000 -1.000000
-50 -10 -51 -0.9999999 0 0 -1.000000 -1.000000
-50 90 -49 0 -4.371139e-08 1 -1.000000 1.000000
3 0 1 2 
3 3 4 5 
3 6 7 8 
3 9 10 11 
3 12 13 14 
3 15 16 17 
3 0 18 1 
3 3 19 4 
3 20 21 22 
3 9 23 10 
3 12 24 13 
3 15 25 16 
